<?xml version="1.0" encoding="us-ascii" standalone="no"?><svg xmlns="http://www.w3.org/2000/svg" xmlns:xlink="http://www.w3.org/1999/xlink" contentStyleType="text/css" height="425px" preserveAspectRatio="none" style="width:406px;height:425px;background:#FFFFFF;" version="1.1" viewBox="0 0 406 425" width="406px" zoomAndPan="magnify"><defs/><g><text fill="#000000" font-family="sans-serif" font-size="14" font-weight="bold" lengthAdjust="spacing" textLength="378" x="10" y="22.9951">Component Diagram for T2-Modulith (simplified)</text><!--cluster modulith--><g id="cluster_modulith"><rect fill="none" height="374.78" rx="2.5" ry="2.5" style="stroke:#444444;stroke-width:1.0;stroke-dasharray:7.0,7.0;" width="382" x="15.5" y="44.2969"/><text fill="#444444" font-family="sans-serif" font-size="16" font-weight="bold" lengthAdjust="spacing" textLength="76" x="168.5" y="61.1484">Modulith</text><text fill="#444444" font-family="sans-serif" font-size="12" font-weight="bold" lengthAdjust="spacing" textLength="80" x="166.5" y="76.0605">[Container]</text></g><!--entity uibackend--><g id="elem_uibackend"><rect fill="#85BBF0" height="52.5938" rx="2.5" ry="2.5" style="stroke:#78A8D8;stroke-width:0.5;" width="114" x="178.5" y="95.2969"/><text fill="#000000" font-family="sans-serif" font-size="16" font-weight="bold" lengthAdjust="spacing" textLength="94" x="188.5" y="120.1484">UIBackend</text><text fill="#000000" font-family="sans-serif" font-size="12" font-style="italic" lengthAdjust="spacing" textLength="55" x="208" y="135.0605">[Module]</text></g><!--entity ui--><g id="elem_ui"><rect fill="#85BBF0" height="52.5938" rx="2.5" ry="2.5" style="stroke:#78A8D8;stroke-width:0.5;" width="75" x="32" y="95.2969"/><text fill="#000000" font-family="sans-serif" font-size="16" font-weight="bold" lengthAdjust="spacing" textLength="18" x="60.5" y="120.1484">UI</text><text fill="#000000" font-family="sans-serif" font-size="12" font-style="italic" lengthAdjust="spacing" textLength="55" x="42" y="135.0605">[Module]</text></g><!--entity inventory--><g id="elem_inventory"><rect fill="#85BBF0" height="52.5938" rx="2.5" ry="2.5" style="stroke:#78A8D8;stroke-width:0.5;" width="106" x="31.5" y="350.4869"/><text fill="#000000" font-family="sans-serif" font-size="16" font-weight="bold" lengthAdjust="spacing" textLength="86" x="41.5" y="375.3384">Inventory</text><text fill="#000000" font-family="sans-serif" font-size="12" font-style="italic" lengthAdjust="spacing" textLength="55" x="57" y="390.2505">[Module]</text></g><!--entity order--><g id="elem_order"><rect fill="#85BBF0" height="52.5938" rx="2.5" ry="2.5" style="stroke:#78A8D8;stroke-width:0.5;" width="75" x="191" y="222.8869"/><text fill="#000000" font-family="sans-serif" font-size="16" font-weight="bold" lengthAdjust="spacing" textLength="52" x="202.5" y="247.7384">Order</text><text fill="#000000" font-family="sans-serif" font-size="12" font-style="italic" lengthAdjust="spacing" textLength="55" x="201" y="262.6505">[Module]</text></g><!--entity payment--><g id="elem_payment"><rect fill="#85BBF0" height="52.5938" rx="2.5" ry="2.5" style="stroke:#78A8D8;stroke-width:0.5;" width="98" x="172.5" y="350.4869"/><text fill="#000000" font-family="sans-serif" font-size="16" font-weight="bold" lengthAdjust="spacing" textLength="78" x="182.5" y="375.3384">Payment</text><text fill="#000000" font-family="sans-serif" font-size="12" font-style="italic" lengthAdjust="spacing" textLength="55" x="194" y="390.2505">[Module]</text></g><!--entity cart--><g id="elem_cart"><rect fill="#85BBF0" height="52.5938" rx="2.5" ry="2.5" style="stroke:#78A8D8;stroke-width:0.5;" width="75" x="306" y="350.4869"/><text fill="#000000" font-family="sans-serif" font-size="16" font-weight="bold" lengthAdjust="spacing" textLength="38" x="324.5" y="375.3384">Cart</text><text fill="#000000" font-family="sans-serif" font-size="12" font-style="italic" lengthAdjust="spacing" textLength="55" x="316" y="390.2505">[Module]</text></g><!--link ui to uibackend--><g id="link_ui_uibackend"><path d="M107.17,121.5969 C128.12,121.5969 146.62,121.5969 170.1,121.5969 " fill="none" id="ui-to-uibackend" style="stroke:#666666;stroke-width:1.0;"/><polygon fill="#666666" points="178.1,121.5969,170.1,118.5969,170.1,124.5969,178.1,121.5969" style="stroke:#666666;stroke-width:1.0;"/><text fill="#666666" font-family="sans-serif" font-size="12" font-weight="bold" lengthAdjust="spacing" textLength="35" x="125.25" y="115.7355">Uses</text></g><!--link uibackend to cart--><g id="link_uibackend_cart"><path d="M256.32,148.2269 C263.19,157.3069 270.59,167.7769 276.5,177.8869 C307.85,231.5069 316.29,245.8069 333.5,305.4869 C337.67,319.9369 339.279,328.6223 340.719,342.0823 " fill="none" id="uibackend-to-cart" style="stroke:#666666;stroke-width:1.0;"/><polygon fill="#666666" points="341.57,350.0369,343.702,341.7631,337.736,342.4014,341.57,350.0369" style="stroke:#666666;stroke-width:1.0;"/><text fill="#666666" font-family="sans-serif" font-size="12" font-weight="bold" lengthAdjust="spacing" textLength="35" x="324.5" y="253.8255">Uses</text></g><!--link uibackend to order--><g id="link_uibackend_order"><path d="M234.07,148.3069 C232.86,169.9869 231.5862,192.8493 230.3762,214.5093 " fill="none" id="uibackend-to-order" style="stroke:#666666;stroke-width:1.0;"/><polygon fill="#666666" points="229.93,222.4969,233.3715,214.6767,227.3809,214.342,229.93,222.4969" style="stroke:#666666;stroke-width:1.0;"/><text fill="#666666" font-family="sans-serif" font-size="12" font-weight="bold" lengthAdjust="spacing" textLength="35" x="232.5" y="190.0255">Uses</text></g><!--link uibackend to inventory--><g id="link_uibackend_inventory"><path d="M203.57,148.1669 C182.02,166.8769 154.37,193.9569 136.5,222.8869 C111.23,263.7969 98.2019,310.6944 91.2219,342.3644 " fill="none" id="uibackend-to-inventory" style="stroke:#666666;stroke-width:1.0;"/><polygon fill="#666666" points="89.5,350.1769,94.1515,343.0101,88.2922,341.7187,89.5,350.1769" style="stroke:#666666;stroke-width:1.0;"/><text fill="#666666" font-family="sans-serif" font-size="12" font-weight="bold" lengthAdjust="spacing" textLength="35" x="137.5" y="253.8255">Uses</text></g><!--link order to inventory--><g id="link_order_inventory"><path d="M199.01,275.9069 C174.16,297.5769 144.8196,323.1792 119.9796,344.8392 " fill="none" id="order-to-inventory" style="stroke:#666666;stroke-width:1.0;"/><polygon fill="#666666" points="113.95,350.0969,121.9513,347.1003,118.008,342.578,113.95,350.0969" style="stroke:#666666;stroke-width:1.0;"/><text fill="#666666" font-family="sans-serif" font-size="12" font-weight="bold" lengthAdjust="spacing" textLength="35" x="161.5" y="317.6255">Uses</text></g><!--link order to payment--><g id="link_order_payment"><path d="M223.42,275.9669 C221.83,285.2269 220.28,295.7869 219.5,305.4869 C218.31,320.2069 218.2522,328.7289 218.9822,342.0489 " fill="none" id="order-to-payment" style="stroke:#666666;stroke-width:1.0;"/><polygon fill="#666666" points="219.42,350.0369,221.9777,341.8847,215.9867,342.213,219.42,350.0369" style="stroke:#666666;stroke-width:1.0;"/><text fill="#666666" font-family="sans-serif" font-size="12" font-weight="bold" lengthAdjust="spacing" textLength="35" x="220.5" y="317.6255">Uses</text></g><!--link order to cart--><g id="link_order_cart"><path d="M252.05,275.9069 C271.89,297.5769 294.7479,322.5363 314.5779,344.1963 " fill="none" id="order-to-cart" style="stroke:#666666;stroke-width:1.0;"/><polygon fill="#666666" points="319.98,350.0969,316.7906,342.1705,312.3652,346.222,319.98,350.0969" style="stroke:#666666;stroke-width:1.0;"/><text fill="#666666" font-family="sans-serif" font-size="12" font-weight="bold" lengthAdjust="spacing" textLength="35" x="289.5" y="317.6255">Uses</text></g><!--SRC=[ZP71Rjim38RlUWhLboL07GFTJZlMlMHOsc9TTmraYt64Ig8cqHc2OUy-sh6RP2sSwK92_FJh9qc6BCWINK0FdkITKKrKJcumokyt-GfrQmrjvImP5wpP6D1p8QwChsshGMw9GlfS557zMZJCjLMR8DReYSKMDReYMEMfTJPFfAsfYl9J_jXTFQ- -5aubWiXNwrS3Yy2i41_aaaMId8qV7CHxHMg3ql7ZKTamcc_uppo5Q0ZIN5nfs1WFSba-t3_zXylBceFPO-kzTC6F7Vg3wtzA6dQTIhefEWdVN81Ofa5TNQ029ceYf9zsc1HXa8IoGY9qKfi8DHdqGfHiNl4CuleMMwzLtC_SiCrhcOsBpJZ_edRgMZxr9kNgHvdDvMyX-RnkPTQQIjKlu3NZpylRGvwDEf3Dt_0zE44Ol-E0SS_8SimdU8mQ8fSVkZZ11RLt71buF6GJRArY1vOSpgW_Gdm3kxu7qsmhZ7qtPnD8a1XZvdGmWzhxnT7- -zNJOPmGmwFfwh7XjxLpIty1]--></g></svg>