<?xml version="1.0" encoding="us-ascii" standalone="no"?><svg xmlns="http://www.w3.org/2000/svg" xmlns:xlink="http://www.w3.org/1999/xlink" contentStyleType="text/css" height="1076px" preserveAspectRatio="none" style="width:783px;height:1076px;background:#FFFFFF;" version="1.1" viewBox="0 0 783 1076" width="783px" zoomAndPan="magnify"><defs/><g><text fill="#000000" font-family="sans-serif" font-size="14" font-weight="bold" lengthAdjust="spacing" textLength="583" x="98.5" y="27.9951">Sequence Diagram for Test Plan Execution With JMeter - T2-Microservices</text><rect fill="#FFFFFF" height="903.8516" style="stroke:#181818;stroke-width:1.0;" width="10" x="43.5" y="112.7266"/><rect fill="#FFFFFF" height="87.3984" style="stroke:#181818;stroke-width:1.0;" width="10" x="213.5" y="213.125"/><rect fill="#FFFFFF" height="145.6641" style="stroke:#181818;stroke-width:1.0;" width="10" x="213.5" y="371.7891"/><rect fill="#FFFFFF" height="427.8594" style="stroke:#181818;stroke-width:1.0;" width="10" x="213.5" y="553.5859"/><rect fill="#FFFFFF" height="187.7969" style="stroke:#181818;stroke-width:1.0;" width="10" x="218.5" y="590.7188"/><rect fill="#FFFFFF" height="29.1328" style="stroke:#181818;stroke-width:1.0;" width="10" x="466.5" y="242.2578"/><rect fill="#FFFFFF" height="29.1328" style="stroke:#181818;stroke-width:1.0;" width="10" x="466.5" y="400.9219"/><rect fill="#FFFFFF" height="29.1328" style="stroke:#181818;stroke-width:1.0;" width="10" x="466.5" y="707.25"/><rect fill="#FFFFFF" height="29.1328" style="stroke:#181818;stroke-width:1.0;" width="10" x="590" y="459.1875"/><rect fill="#FFFFFF" height="29.1328" style="stroke:#181818;stroke-width:1.0;" width="10" x="590" y="624.8516"/><rect fill="#FFFFFF" height="29.1328" style="stroke:#181818;stroke-width:1.0;" width="10" x="590" y="923.1797"/><rect fill="#FFFFFF" height="79.3984" style="stroke:#181818;stroke-width:1.0;" width="10" x="698.5" y="814.6484"/><rect fill="none" height="350.5938" style="stroke:#000000;stroke-width:1.5;" width="643" x="10" y="174.8594"/><rect fill="none" height="75.3984" style="stroke:#000000;stroke-width:1.5;" width="409.5" x="137.5" y="668.9844"/><line style="stroke:#181818;stroke-width:0.5;stroke-dasharray:5.0,5.0;" x1="48" x2="48" y1="73.5938" y2="1041.5781"/><line style="stroke:#181818;stroke-width:0.5;stroke-dasharray:5.0,5.0;" x1="218.5" x2="218.5" y1="73.5938" y2="1041.5781"/><line style="stroke:#181818;stroke-width:0.5;stroke-dasharray:5.0,5.0;" x1="471" x2="471" y1="73.5938" y2="1041.5781"/><line style="stroke:#181818;stroke-width:0.5;stroke-dasharray:5.0,5.0;" x1="595" x2="595" y1="73.5938" y2="1041.5781"/><line style="stroke:#181818;stroke-width:0.5;stroke-dasharray:5.0,5.0;" x1="703" x2="703" y1="73.5938" y2="1041.5781"/><rect fill="#E2E2F0" height="30.2969" rx="2.5" ry="2.5" style="stroke:#181818;stroke-width:0.5;" width="57" x="20" y="42.2969"/><text fill="#000000" font-family="sans-serif" font-size="14" lengthAdjust="spacing" textLength="43" x="27" y="62.292">JMeter</text><rect fill="#E2E2F0" height="30.2969" rx="2.5" ry="2.5" style="stroke:#181818;stroke-width:0.5;" width="57" x="20" y="1040.5781"/><text fill="#000000" font-family="sans-serif" font-size="14" lengthAdjust="spacing" textLength="43" x="27" y="1060.5732">JMeter</text><rect fill="#E2E2F0" height="30.2969" rx="2.5" ry="2.5" style="stroke:#181818;stroke-width:0.5;" width="142" x="147.5" y="42.2969"/><text fill="#000000" font-family="sans-serif" font-size="14" lengthAdjust="spacing" textLength="128" x="154.5" y="62.292">UIBackend Service</text><rect fill="#E2E2F0" height="30.2969" rx="2.5" ry="2.5" style="stroke:#181818;stroke-width:0.5;" width="142" x="147.5" y="1040.5781"/><text fill="#000000" font-family="sans-serif" font-size="14" lengthAdjust="spacing" textLength="128" x="154.5" y="1060.5732">UIBackend Service</text><rect fill="#E2E2F0" height="30.2969" rx="2.5" ry="2.5" style="stroke:#181818;stroke-width:0.5;" width="131" x="406" y="42.2969"/><text fill="#000000" font-family="sans-serif" font-size="14" lengthAdjust="spacing" textLength="117" x="413" y="62.292">Inventory Service</text><rect fill="#E2E2F0" height="30.2969" rx="2.5" ry="2.5" style="stroke:#181818;stroke-width:0.5;" width="131" x="406" y="1040.5781"/><text fill="#000000" font-family="sans-serif" font-size="14" lengthAdjust="spacing" textLength="117" x="413" y="1060.5732">Inventory Service</text><rect fill="#E2E2F0" height="30.2969" rx="2.5" ry="2.5" style="stroke:#181818;stroke-width:0.5;" width="96" x="547" y="42.2969"/><text fill="#000000" font-family="sans-serif" font-size="14" lengthAdjust="spacing" textLength="82" x="554" y="62.292">Cart Service</text><rect fill="#E2E2F0" height="30.2969" rx="2.5" ry="2.5" style="stroke:#181818;stroke-width:0.5;" width="96" x="547" y="1040.5781"/><text fill="#000000" font-family="sans-serif" font-size="14" lengthAdjust="spacing" textLength="82" x="554" y="1060.5732">Cart Service</text><rect fill="#E2E2F0" height="30.2969" rx="2.5" ry="2.5" style="stroke:#181818;stroke-width:0.5;" width="101" x="653" y="42.2969"/><text fill="#000000" font-family="sans-serif" font-size="14" lengthAdjust="spacing" textLength="87" x="660" y="62.292">Orchestrator</text><rect fill="#E2E2F0" height="30.2969" rx="2.5" ry="2.5" style="stroke:#181818;stroke-width:0.5;" width="101" x="653" y="1040.5781"/><text fill="#000000" font-family="sans-serif" font-size="14" lengthAdjust="spacing" textLength="87" x="660" y="1060.5732">Orchestrator</text><rect fill="#FFFFFF" height="903.8516" style="stroke:#181818;stroke-width:1.0;" width="10" x="43.5" y="112.7266"/><rect fill="#FFFFFF" height="87.3984" style="stroke:#181818;stroke-width:1.0;" width="10" x="213.5" y="213.125"/><rect fill="#FFFFFF" height="145.6641" style="stroke:#181818;stroke-width:1.0;" width="10" x="213.5" y="371.7891"/><rect fill="#FFFFFF" height="427.8594" style="stroke:#181818;stroke-width:1.0;" width="10" x="213.5" y="553.5859"/><rect fill="#FFFFFF" height="187.7969" style="stroke:#181818;stroke-width:1.0;" width="10" x="218.5" y="590.7188"/><rect fill="#FFFFFF" height="29.1328" style="stroke:#181818;stroke-width:1.0;" width="10" x="466.5" y="242.2578"/><rect fill="#FFFFFF" height="29.1328" style="stroke:#181818;stroke-width:1.0;" width="10" x="466.5" y="400.9219"/><rect fill="#FFFFFF" height="29.1328" style="stroke:#181818;stroke-width:1.0;" width="10" x="466.5" y="707.25"/><rect fill="#FFFFFF" height="29.1328" style="stroke:#181818;stroke-width:1.0;" width="10" x="590" y="459.1875"/><rect fill="#FFFFFF" height="29.1328" style="stroke:#181818;stroke-width:1.0;" width="10" x="590" y="624.8516"/><rect fill="#FFFFFF" height="29.1328" style="stroke:#181818;stroke-width:1.0;" width="10" x="590" y="923.1797"/><rect fill="#FFFFFF" height="79.3984" style="stroke:#181818;stroke-width:1.0;" width="10" x="698.5" y="814.6484"/><line style="stroke:#181818;stroke-width:1.0;" x1="48.5" x2="95.5" y1="99.7266" y2="99.7266"/><line style="stroke:#181818;stroke-width:1.0;" x1="95.5" x2="95.5" y1="99.7266" y2="112.7266"/><line style="stroke:#181818;stroke-width:1.0;" x1="54.5" x2="95.5" y1="112.7266" y2="112.7266"/><polygon fill="#181818" points="64.5,108.7266,54.5,112.7266,64.5,116.7266,60.5,112.7266" style="stroke:#181818;stroke-width:1.0;"/><text fill="#000000" font-family="sans-serif" font-size="13" lengthAdjust="spacing" textLength="32" x="60.5" y="94.6606">Start</text><line style="stroke:#181818;stroke-width:1.0;" x1="53.5" x2="95.5" y1="146.8594" y2="146.8594"/><line style="stroke:#181818;stroke-width:1.0;" x1="95.5" x2="95.5" y1="146.8594" y2="159.8594"/><line style="stroke:#181818;stroke-width:1.0;" x1="54.5" x2="95.5" y1="159.8594" y2="159.8594"/><polygon fill="#181818" points="64.5,155.8594,54.5,159.8594,64.5,163.8594,60.5,159.8594" style="stroke:#181818;stroke-width:1.0;"/><text fill="#000000" font-family="sans-serif" font-size="13" lengthAdjust="spacing" textLength="129" x="60.5" y="141.7935">Generate session ID</text><path d="M10,174.8594 L87,174.8594 L87,181.9922 L77,191.9922 L10,191.9922 L10,174.8594 " fill="#EEEEEE" style="stroke:#000000;stroke-width:1.5;"/><rect fill="none" height="350.5938" style="stroke:#000000;stroke-width:1.5;" width="643" x="10" y="174.8594"/><text fill="#000000" font-family="sans-serif" font-size="13" font-weight="bold" lengthAdjust="spacing" textLength="32" x="25" y="187.9263">loop</text><text fill="#000000" font-family="sans-serif" font-size="11" font-weight="bold" lengthAdjust="spacing" textLength="159" x="102" y="187.0698">[number of items to add]</text><polygon fill="#181818" points="201.5,209.125,211.5,213.125,201.5,217.125,205.5,213.125" style="stroke:#181818;stroke-width:1.0;"/><line style="stroke:#181818;stroke-width:1.0;" x1="53.5" x2="207.5" y1="213.125" y2="213.125"/><text fill="#000000" font-family="sans-serif" font-size="13" lengthAdjust="spacing" textLength="88" x="60.5" y="208.0591">GET inventory</text><polygon fill="#181818" points="454.5,238.2578,464.5,242.2578,454.5,246.2578,458.5,242.2578" style="stroke:#181818;stroke-width:1.0;"/><line style="stroke:#181818;stroke-width:1.0;" x1="223.5" x2="460.5" y1="242.2578" y2="242.2578"/><text fill="#000000" font-family="sans-serif" font-size="13" lengthAdjust="spacing" textLength="88" x="230.5" y="237.1919">GET inventory</text><polygon fill="#181818" points="234.5,267.3906,224.5,271.3906,234.5,275.3906,230.5,271.3906" style="stroke:#181818;stroke-width:1.0;"/><line style="stroke:#181818;stroke-width:1.0;" x1="228.5" x2="470.5" y1="271.3906" y2="271.3906"/><text fill="#000000" font-family="sans-serif" font-size="13" lengthAdjust="spacing" textLength="59" x="240.5" y="266.3247">inventory</text><polygon fill="#181818" points="64.5,296.5234,54.5,300.5234,64.5,304.5234,60.5,300.5234" style="stroke:#181818;stroke-width:1.0;"/><line style="stroke:#181818;stroke-width:1.0;" x1="58.5" x2="217.5" y1="300.5234" y2="300.5234"/><text fill="#000000" font-family="sans-serif" font-size="13" lengthAdjust="spacing" textLength="59" x="70.5" y="295.4575">inventory</text><line style="stroke:#181818;stroke-width:1.0;" x1="53.5" x2="95.5" y1="329.6563" y2="329.6563"/><line style="stroke:#181818;stroke-width:1.0;" x1="95.5" x2="95.5" y1="329.6563" y2="342.6563"/><line style="stroke:#181818;stroke-width:1.0;" x1="54.5" x2="95.5" y1="342.6563" y2="342.6563"/><polygon fill="#181818" points="64.5,338.6563,54.5,342.6563,64.5,346.6563,60.5,342.6563" style="stroke:#181818;stroke-width:1.0;"/><text fill="#000000" font-family="sans-serif" font-size="13" lengthAdjust="spacing" textLength="112" x="60.5" y="324.5903">pick random item</text><polygon fill="#181818" points="201.5,367.7891,211.5,371.7891,201.5,375.7891,205.5,371.7891" style="stroke:#181818;stroke-width:1.0;"/><line style="stroke:#181818;stroke-width:1.0;" x1="53.5" x2="207.5" y1="371.7891" y2="371.7891"/><text fill="#000000" font-family="sans-serif" font-size="13" lengthAdjust="spacing" textLength="141" x="60.5" y="366.7231">POST add item to cart</text><polygon fill="#181818" points="454.5,396.9219,464.5,400.9219,454.5,404.9219,458.5,400.9219" style="stroke:#181818;stroke-width:1.0;"/><line style="stroke:#181818;stroke-width:1.0;" x1="223.5" x2="460.5" y1="400.9219" y2="400.9219"/><text fill="#000000" font-family="sans-serif" font-size="13" lengthAdjust="spacing" textLength="224" x="230.5" y="395.856">POST make reserverations for item</text><polygon fill="#181818" points="234.5,426.0547,224.5,430.0547,234.5,434.0547,230.5,430.0547" style="stroke:#181818;stroke-width:1.0;"/><line style="stroke:#181818;stroke-width:1.0;" x1="228.5" x2="470.5" y1="430.0547" y2="430.0547"/><text fill="#000000" font-family="sans-serif" font-size="13" lengthAdjust="spacing" textLength="15" x="240.5" y="424.9888">ok</text><polygon fill="#181818" points="578,455.1875,588,459.1875,578,463.1875,582,459.1875" style="stroke:#181818;stroke-width:1.0;"/><line style="stroke:#181818;stroke-width:1.0;" x1="223.5" x2="584" y1="459.1875" y2="459.1875"/><text fill="#000000" font-family="sans-serif" font-size="13" lengthAdjust="spacing" textLength="132" x="230.5" y="454.1216">PUT add item to cart</text><polygon fill="#181818" points="234.5,484.3203,224.5,488.3203,234.5,492.3203,230.5,488.3203" style="stroke:#181818;stroke-width:1.0;"/><line style="stroke:#181818;stroke-width:1.0;" x1="228.5" x2="594" y1="488.3203" y2="488.3203"/><text fill="#000000" font-family="sans-serif" font-size="13" lengthAdjust="spacing" textLength="15" x="240.5" y="483.2544">ok</text><polygon fill="#181818" points="64.5,513.4531,54.5,517.4531,64.5,521.4531,60.5,517.4531" style="stroke:#181818;stroke-width:1.0;"/><line style="stroke:#181818;stroke-width:1.0;" x1="58.5" x2="217.5" y1="517.4531" y2="517.4531"/><text fill="#000000" font-family="sans-serif" font-size="13" lengthAdjust="spacing" textLength="15" x="70.5" y="512.3872">ok</text><polygon fill="#181818" points="201.5,549.5859,211.5,553.5859,201.5,557.5859,205.5,553.5859" style="stroke:#181818;stroke-width:1.0;"/><line style="stroke:#181818;stroke-width:1.0;" x1="53.5" x2="207.5" y1="553.5859" y2="553.5859"/><text fill="#000000" font-family="sans-serif" font-size="13" lengthAdjust="spacing" textLength="124" x="60.5" y="548.52">POST confirm order</text><line style="stroke:#181818;stroke-width:1.0;" x1="223.5" x2="270.5" y1="577.7188" y2="577.7188"/><line style="stroke:#181818;stroke-width:1.0;" x1="270.5" x2="270.5" y1="577.7188" y2="590.7188"/><line style="stroke:#181818;stroke-width:1.0;" x1="229.5" x2="270.5" y1="590.7188" y2="590.7188"/><polygon fill="#181818" points="239.5,586.7188,229.5,590.7188,239.5,594.7188,235.5,590.7188" style="stroke:#181818;stroke-width:1.0;"/><text fill="#000000" font-family="sans-serif" font-size="13" lengthAdjust="spacing" textLength="90" x="235.5" y="572.6528">calculate total</text><polygon fill="#181818" points="578,620.8516,588,624.8516,578,628.8516,582,624.8516" style="stroke:#181818;stroke-width:1.0;"/><line style="stroke:#181818;stroke-width:1.0;" x1="228.5" x2="584" y1="624.8516" y2="624.8516"/><text fill="#000000" font-family="sans-serif" font-size="13" lengthAdjust="spacing" textLength="54" x="235.5" y="619.7856">GET cart</text><polygon fill="#181818" points="239.5,649.9844,229.5,653.9844,239.5,657.9844,235.5,653.9844" style="stroke:#181818;stroke-width:1.0;"/><line style="stroke:#181818;stroke-width:1.0;" x1="233.5" x2="594" y1="653.9844" y2="653.9844"/><text fill="#000000" font-family="sans-serif" font-size="13" lengthAdjust="spacing" textLength="25" x="245.5" y="648.9185">cart</text><path d="M137.5,668.9844 L214.5,668.9844 L214.5,676.1172 L204.5,686.1172 L137.5,686.1172 L137.5,668.9844 " fill="#EEEEEE" style="stroke:#000000;stroke-width:1.5;"/><rect fill="none" height="75.3984" style="stroke:#000000;stroke-width:1.5;" width="409.5" x="137.5" y="668.9844"/><text fill="#000000" font-family="sans-serif" font-size="13" font-weight="bold" lengthAdjust="spacing" textLength="32" x="152.5" y="682.0513">loop</text><text fill="#000000" font-family="sans-serif" font-size="11" font-weight="bold" lengthAdjust="spacing" textLength="159" x="229.5" y="681.1948">[number of items in cart]</text><polygon fill="#181818" points="454.5,703.25,464.5,707.25,454.5,711.25,458.5,707.25" style="stroke:#181818;stroke-width:1.0;"/><line style="stroke:#181818;stroke-width:1.0;" x1="228.5" x2="460.5" y1="707.25" y2="707.25"/><text fill="#000000" font-family="sans-serif" font-size="13" lengthAdjust="spacing" textLength="124" x="235.5" y="702.1841">GET product details</text><polygon fill="#181818" points="239.5,732.3828,229.5,736.3828,239.5,740.3828,235.5,736.3828" style="stroke:#181818;stroke-width:1.0;"/><line style="stroke:#181818;stroke-width:1.0;" x1="233.5" x2="470.5" y1="736.3828" y2="736.3828"/><text fill="#000000" font-family="sans-serif" font-size="13" lengthAdjust="spacing" textLength="95" x="245.5" y="731.3169">product details</text><line style="stroke:#181818;stroke-width:1.0;" x1="228.5" x2="270.5" y1="777.5156" y2="777.5156"/><line style="stroke:#181818;stroke-width:1.0;" x1="270.5" x2="270.5" y1="777.5156" y2="790.5156"/><line style="stroke:#181818;stroke-width:1.0;" x1="223.5" x2="270.5" y1="790.5156" y2="790.5156"/><polygon fill="#181818" points="233.5,786.5156,223.5,790.5156,233.5,794.5156,229.5,790.5156" style="stroke:#181818;stroke-width:1.0;"/><text fill="#000000" font-family="sans-serif" font-size="13" lengthAdjust="spacing" textLength="58" x="235.5" y="772.4497">cart total</text><polygon fill="#181818" points="686.5,810.6484,696.5,814.6484,686.5,818.6484,690.5,814.6484" style="stroke:#181818;stroke-width:1.0;"/><line style="stroke:#181818;stroke-width:1.0;" x1="223.5" x2="692.5" y1="814.6484" y2="814.6484"/><text fill="#000000" font-family="sans-serif" font-size="13" lengthAdjust="spacing" textLength="103" x="230.5" y="809.5825">POST start saga</text><path d="M630,827.6484 L630,867.6484 L776,867.6484 L776,837.6484 L766,827.6484 L630,827.6484 " fill="#FEFFDD" style="stroke:#181818;stroke-width:0.5;"/><path d="M766,827.6484 L766,837.6484 L776,837.6484 L766,827.6484 " fill="#FEFFDD" style="stroke:#181818;stroke-width:0.5;"/><text fill="#000000" font-family="sans-serif" font-size="13" lengthAdjust="spacing" textLength="125" x="636" y="844.7153">Asynchronous saga</text><text fill="#000000" font-family="sans-serif" font-size="13" lengthAdjust="spacing" textLength="103" x="636" y="859.8481">execution starts</text><polygon fill="#181818" points="234.5,890.0469,224.5,894.0469,234.5,898.0469,230.5,894.0469" style="stroke:#181818;stroke-width:1.0;"/><line style="stroke:#181818;stroke-width:1.0;" x1="228.5" x2="702.5" y1="894.0469" y2="894.0469"/><text fill="#000000" font-family="sans-serif" font-size="13" lengthAdjust="spacing" textLength="15" x="240.5" y="888.981">ok</text><polygon fill="#181818" points="578,919.1797,588,923.1797,578,927.1797,582,923.1797" style="stroke:#181818;stroke-width:1.0;"/><line style="stroke:#181818;stroke-width:1.0;" x1="223.5" x2="584" y1="923.1797" y2="923.1797"/><text fill="#000000" font-family="sans-serif" font-size="13" lengthAdjust="spacing" textLength="77" x="230.5" y="918.1138">DELETE cart</text><polygon fill="#181818" points="234.5,948.3125,224.5,952.3125,234.5,956.3125,230.5,952.3125" style="stroke:#181818;stroke-width:1.0;"/><line style="stroke:#181818;stroke-width:1.0;" x1="228.5" x2="594" y1="952.3125" y2="952.3125"/><text fill="#000000" font-family="sans-serif" font-size="13" lengthAdjust="spacing" textLength="15" x="240.5" y="947.2466">ok</text><polygon fill="#181818" points="64.5,977.4453,54.5,981.4453,64.5,985.4453,60.5,981.4453" style="stroke:#181818;stroke-width:1.0;"/><line style="stroke:#181818;stroke-width:1.0;" x1="58.5" x2="217.5" y1="981.4453" y2="981.4453"/><text fill="#000000" font-family="sans-serif" font-size="13" lengthAdjust="spacing" textLength="15" x="70.5" y="976.3794">ok</text><line style="stroke:#181818;stroke-width:1.0;" x1="53.5" x2="95.5" y1="1015.5781" y2="1015.5781"/><line style="stroke:#181818;stroke-width:1.0;" x1="95.5" x2="95.5" y1="1015.5781" y2="1028.5781"/><line style="stroke:#181818;stroke-width:1.0;" x1="48.5" x2="95.5" y1="1028.5781" y2="1028.5781"/><polygon fill="#181818" points="58.5,1024.5781,48.5,1028.5781,58.5,1032.5781,54.5,1028.5781" style="stroke:#181818;stroke-width:1.0;"/><text fill="#000000" font-family="sans-serif" font-size="13" lengthAdjust="spacing" textLength="24" x="60.5" y="1010.5122">End</text><!--SRC=[ZPJ1Rjim38RlUWeYryAN7eDYmBOOHOeLBH0Nk_IYoaoZnPOyIGxMjn-f98wKr4vp2_c9vF-BSj2XGLZXtnwDGbXe-Uva2slhe48VuBcH1if_gFgWhO7VEcpWuH43EYYWkYqUjNBMezjfXLw8JhgWbUwa2J3RSpD8VjB3dvQZEVco_27L5arDayHICoPx_RQFvl3IxD04wpuoM1-ZEVoJ_fouumoAeZdtvDI6z3f99KwSJQ92x2U7ujj10zpSm1nMWOjTvEPmZmRf9897xzcyvKA8njeEJD- -4MBNe0Es7e85MTU2cvxg3EhtRUxBAj78w0aWUaWnVGM_AnAyA8ZEoSCCX2KjSknira5pfzKMd3IrRQEsQKtFJwkAbKUKNOZtCgtjSAgLMmI7l7biCjdhuz8EJQVaskrb4svzgFzoTIWg6VcqsgXhbEST5jCsA6lMshMqSZMzZcoqCrp9HlKDBrQmGJPYH0PlG1nzPEoO-tGTjVdQHN27pjcwLm5g358t_ghrvpmxCo9scF8pdUdBJ5pq_1Z1otSfZ2M7x8w5fUmSlliFepRE6jlxYBuQ73vmiO3FFSlE7wzqnFL5-QkioadZwV3Khbn-IcAc9AF-0m00]--></g></svg>