<?xml version="1.0" encoding="us-ascii" standalone="no"?><svg xmlns="http://www.w3.org/2000/svg" xmlns:xlink="http://www.w3.org/1999/xlink" contentStyleType="text/css" height="1271px" preserveAspectRatio="none" style="width:919px;height:1271px;background:#FFFFFF;" version="1.1" viewBox="0 0 919 1271" width="919px" zoomAndPan="magnify"><defs/><g><text fill="#000000" font-family="sans-serif" font-size="14" font-weight="bold" lengthAdjust="spacing" textLength="532" x="189.5" y="27.9951">Sequence Diagram for Standard Usage Scenario - T2-Microservices</text><rect fill="#FFFFFF" height="145.6641" style="stroke:#181818;stroke-width:1.0;" width="10" x="174" y="192.8594"/><rect fill="#FFFFFF" height="203.9297" style="stroke:#181818;stroke-width:1.0;" width="10" x="174" y="410.7891"/><rect fill="#FFFFFF" height="486.125" style="stroke:#181818;stroke-width:1.0;" width="10" x="174" y="686.9844"/><rect fill="#FFFFFF" height="87.3984" style="stroke:#181818;stroke-width:1.0;" width="10" x="344" y="221.9922"/><rect fill="#FFFFFF" height="145.6641" style="stroke:#181818;stroke-width:1.0;" width="10" x="344" y="439.9219"/><rect fill="#FFFFFF" height="427.8594" style="stroke:#181818;stroke-width:1.0;" width="10" x="344" y="716.1172"/><rect fill="#FFFFFF" height="187.7969" style="stroke:#181818;stroke-width:1.0;" width="10" x="349" y="753.25"/><rect fill="#FFFFFF" height="29.1328" style="stroke:#181818;stroke-width:1.0;" width="10" x="597" y="251.125"/><rect fill="#FFFFFF" height="29.1328" style="stroke:#181818;stroke-width:1.0;" width="10" x="597" y="469.0547"/><rect fill="#FFFFFF" height="29.1328" style="stroke:#181818;stroke-width:1.0;" width="10" x="597" y="869.7813"/><rect fill="#FFFFFF" height="29.1328" style="stroke:#181818;stroke-width:1.0;" width="10" x="720.5" y="527.3203"/><rect fill="#FFFFFF" height="29.1328" style="stroke:#181818;stroke-width:1.0;" width="10" x="720.5" y="787.3828"/><rect fill="#FFFFFF" height="29.1328" style="stroke:#181818;stroke-width:1.0;" width="10" x="720.5" y="1085.7109"/><rect fill="#FFFFFF" height="79.3984" style="stroke:#181818;stroke-width:1.0;" width="10" x="829" y="977.1797"/><rect fill="none" height="75.3984" style="stroke:#000000;stroke-width:1.5;" width="409.5" x="268" y="831.5156"/><line style="stroke:#181818;stroke-width:0.5;stroke-dasharray:5.0,5.0;" x1="24" x2="24" y1="118.5938" y2="1191.1094"/><line style="stroke:#181818;stroke-width:0.5;stroke-dasharray:5.0,5.0;" x1="178.5" x2="178.5" y1="118.5938" y2="1191.1094"/><line style="stroke:#181818;stroke-width:0.5;stroke-dasharray:5.0,5.0;" x1="349" x2="349" y1="118.5938" y2="1191.1094"/><line style="stroke:#181818;stroke-width:0.5;stroke-dasharray:5.0,5.0;" x1="601.5" x2="601.5" y1="118.5938" y2="1191.1094"/><line style="stroke:#181818;stroke-width:0.5;stroke-dasharray:5.0,5.0;" x1="725.5" x2="725.5" y1="118.5938" y2="1191.1094"/><line style="stroke:#181818;stroke-width:0.5;stroke-dasharray:5.0,5.0;" x1="833.5" x2="833.5" y1="118.5938" y2="1191.1094"/><text fill="#000000" font-family="sans-serif" font-size="14" lengthAdjust="spacing" textLength="32" x="5" y="115.292">User</text><ellipse cx="24" cy="50.7969" fill="#E2E2F0" rx="8" ry="8" style="stroke:#181818;stroke-width:0.5;"/><path d="M24,58.7969 L24,85.7969 M11,66.7969 L37,66.7969 M24,85.7969 L11,100.7969 M24,85.7969 L37,100.7969 " fill="none" style="stroke:#181818;stroke-width:0.5;"/><text fill="#000000" font-family="sans-serif" font-size="14" lengthAdjust="spacing" textLength="32" x="5" y="1203.1045">User</text><ellipse cx="24" cy="1214.9063" fill="#E2E2F0" rx="8" ry="8" style="stroke:#181818;stroke-width:0.5;"/><path d="M24,1222.9063 L24,1249.9063 M11,1230.9063 L37,1230.9063 M24,1249.9063 L11,1264.9063 M24,1249.9063 L37,1264.9063 " fill="none" style="stroke:#181818;stroke-width:0.5;"/><rect fill="#E2E2F0" height="30.2969" rx="2.5" ry="2.5" style="stroke:#181818;stroke-width:0.5;" width="81" x="138.5" y="87.2969"/><text fill="#000000" font-family="sans-serif" font-size="14" lengthAdjust="spacing" textLength="67" x="145.5" y="107.292">UI Service</text><rect fill="#E2E2F0" height="30.2969" rx="2.5" ry="2.5" style="stroke:#181818;stroke-width:0.5;" width="81" x="138.5" y="1190.1094"/><text fill="#000000" font-family="sans-serif" font-size="14" lengthAdjust="spacing" textLength="67" x="145.5" y="1210.1045">UI Service</text><rect fill="#E2E2F0" height="30.2969" rx="2.5" ry="2.5" style="stroke:#181818;stroke-width:0.5;" width="142" x="278" y="87.2969"/><text fill="#000000" font-family="sans-serif" font-size="14" lengthAdjust="spacing" textLength="128" x="285" y="107.292">UIBackend Service</text><rect fill="#E2E2F0" height="30.2969" rx="2.5" ry="2.5" style="stroke:#181818;stroke-width:0.5;" width="142" x="278" y="1190.1094"/><text fill="#000000" font-family="sans-serif" font-size="14" lengthAdjust="spacing" textLength="128" x="285" y="1210.1045">UIBackend Service</text><rect fill="#E2E2F0" height="30.2969" rx="2.5" ry="2.5" style="stroke:#181818;stroke-width:0.5;" width="131" x="536.5" y="87.2969"/><text fill="#000000" font-family="sans-serif" font-size="14" lengthAdjust="spacing" textLength="117" x="543.5" y="107.292">Inventory Service</text><rect fill="#E2E2F0" height="30.2969" rx="2.5" ry="2.5" style="stroke:#181818;stroke-width:0.5;" width="131" x="536.5" y="1190.1094"/><text fill="#000000" font-family="sans-serif" font-size="14" lengthAdjust="spacing" textLength="117" x="543.5" y="1210.1045">Inventory Service</text><rect fill="#E2E2F0" height="30.2969" rx="2.5" ry="2.5" style="stroke:#181818;stroke-width:0.5;" width="96" x="677.5" y="87.2969"/><text fill="#000000" font-family="sans-serif" font-size="14" lengthAdjust="spacing" textLength="82" x="684.5" y="107.292">Cart Service</text><rect fill="#E2E2F0" height="30.2969" rx="2.5" ry="2.5" style="stroke:#181818;stroke-width:0.5;" width="96" x="677.5" y="1190.1094"/><text fill="#000000" font-family="sans-serif" font-size="14" lengthAdjust="spacing" textLength="82" x="684.5" y="1210.1045">Cart Service</text><rect fill="#E2E2F0" height="30.2969" rx="2.5" ry="2.5" style="stroke:#181818;stroke-width:0.5;" width="101" x="783.5" y="87.2969"/><text fill="#000000" font-family="sans-serif" font-size="14" lengthAdjust="spacing" textLength="87" x="790.5" y="107.292">Orchestrator</text><rect fill="#E2E2F0" height="30.2969" rx="2.5" ry="2.5" style="stroke:#181818;stroke-width:0.5;" width="101" x="783.5" y="1190.1094"/><text fill="#000000" font-family="sans-serif" font-size="14" lengthAdjust="spacing" textLength="87" x="790.5" y="1210.1045">Orchestrator</text><rect fill="#FFFFFF" height="145.6641" style="stroke:#181818;stroke-width:1.0;" width="10" x="174" y="192.8594"/><rect fill="#FFFFFF" height="203.9297" style="stroke:#181818;stroke-width:1.0;" width="10" x="174" y="410.7891"/><rect fill="#FFFFFF" height="486.125" style="stroke:#181818;stroke-width:1.0;" width="10" x="174" y="686.9844"/><rect fill="#FFFFFF" height="87.3984" style="stroke:#181818;stroke-width:1.0;" width="10" x="344" y="221.9922"/><rect fill="#FFFFFF" height="145.6641" style="stroke:#181818;stroke-width:1.0;" width="10" x="344" y="439.9219"/><rect fill="#FFFFFF" height="427.8594" style="stroke:#181818;stroke-width:1.0;" width="10" x="344" y="716.1172"/><rect fill="#FFFFFF" height="187.7969" style="stroke:#181818;stroke-width:1.0;" width="10" x="349" y="753.25"/><rect fill="#FFFFFF" height="29.1328" style="stroke:#181818;stroke-width:1.0;" width="10" x="597" y="251.125"/><rect fill="#FFFFFF" height="29.1328" style="stroke:#181818;stroke-width:1.0;" width="10" x="597" y="469.0547"/><rect fill="#FFFFFF" height="29.1328" style="stroke:#181818;stroke-width:1.0;" width="10" x="597" y="869.7813"/><rect fill="#FFFFFF" height="29.1328" style="stroke:#181818;stroke-width:1.0;" width="10" x="720.5" y="527.3203"/><rect fill="#FFFFFF" height="29.1328" style="stroke:#181818;stroke-width:1.0;" width="10" x="720.5" y="787.3828"/><rect fill="#FFFFFF" height="29.1328" style="stroke:#181818;stroke-width:1.0;" width="10" x="720.5" y="1085.7109"/><rect fill="#FFFFFF" height="79.3984" style="stroke:#181818;stroke-width:1.0;" width="10" x="829" y="977.1797"/><rect fill="#EEEEEE" height="3" style="stroke:#EEEEEE;stroke-width:1.0;" width="912" x="0" y="149.1602"/><line style="stroke:#000000;stroke-width:1.0;" x1="0" x2="912" y1="149.1602" y2="149.1602"/><line style="stroke:#000000;stroke-width:1.0;" x1="0" x2="912" y1="152.1602" y2="152.1602"/><rect fill="#EEEEEE" height="23.1328" style="stroke:#000000;stroke-width:2.0;" width="116" x="398" y="138.5938"/><text fill="#000000" font-family="sans-serif" font-size="13" font-weight="bold" lengthAdjust="spacing" textLength="97" x="404" y="154.6606">Get Products</text><polygon fill="#181818" points="162,188.8594,172,192.8594,162,196.8594,166,192.8594" style="stroke:#181818;stroke-width:1.0;"/><line style="stroke:#181818;stroke-width:1.0;" x1="24" x2="168" y1="192.8594" y2="192.8594"/><text fill="#000000" font-family="sans-serif" font-size="13" lengthAdjust="spacing" textLength="96" x="31" y="187.7935">Page /products</text><polygon fill="#181818" points="332,217.9922,342,221.9922,332,225.9922,336,221.9922" style="stroke:#181818;stroke-width:1.0;"/><line style="stroke:#181818;stroke-width:1.0;" x1="184" x2="338" y1="221.9922" y2="221.9922"/><text fill="#000000" font-family="sans-serif" font-size="13" lengthAdjust="spacing" textLength="85" x="191" y="216.9263">GET products</text><polygon fill="#181818" points="585,247.125,595,251.125,585,255.125,589,251.125" style="stroke:#181818;stroke-width:1.0;"/><line style="stroke:#181818;stroke-width:1.0;" x1="354" x2="591" y1="251.125" y2="251.125"/><text fill="#000000" font-family="sans-serif" font-size="13" lengthAdjust="spacing" textLength="85" x="361" y="246.0591">GET products</text><polygon fill="#181818" points="365,276.2578,355,280.2578,365,284.2578,361,280.2578" style="stroke:#181818;stroke-width:1.0;"/><line style="stroke:#181818;stroke-width:1.0;" x1="359" x2="601" y1="280.2578" y2="280.2578"/><text fill="#000000" font-family="sans-serif" font-size="13" lengthAdjust="spacing" textLength="56" x="371" y="275.1919">products</text><polygon fill="#181818" points="195,305.3906,185,309.3906,195,313.3906,191,309.3906" style="stroke:#181818;stroke-width:1.0;"/><line style="stroke:#181818;stroke-width:1.0;" x1="189" x2="348" y1="309.3906" y2="309.3906"/><text fill="#000000" font-family="sans-serif" font-size="13" lengthAdjust="spacing" textLength="56" x="201" y="304.3247">products</text><polygon fill="#181818" points="35,334.5234,25,338.5234,35,342.5234,31,338.5234" style="stroke:#181818;stroke-width:1.0;"/><line style="stroke:#181818;stroke-width:1.0;" x1="29" x2="178" y1="338.5234" y2="338.5234"/><text fill="#000000" font-family="sans-serif" font-size="13" lengthAdjust="spacing" textLength="56" x="41" y="333.4575">products</text><rect fill="#EEEEEE" height="3" style="stroke:#EEEEEE;stroke-width:1.0;" width="912" x="0" y="367.0898"/><line style="stroke:#000000;stroke-width:1.0;" x1="0" x2="912" y1="367.0898" y2="367.0898"/><line style="stroke:#000000;stroke-width:1.0;" x1="0" x2="912" y1="370.0898" y2="370.0898"/><rect fill="#EEEEEE" height="23.1328" style="stroke:#000000;stroke-width:2.0;" width="143" x="384.5" y="356.5234"/><text fill="#000000" font-family="sans-serif" font-size="13" font-weight="bold" lengthAdjust="spacing" textLength="124" x="390.5" y="372.5903">Add Item to Cart</text><polygon fill="#181818" points="162,406.7891,172,410.7891,162,414.7891,166,410.7891" style="stroke:#181818;stroke-width:1.0;"/><line style="stroke:#181818;stroke-width:1.0;" x1="24" x2="168" y1="410.7891" y2="410.7891"/><text fill="#000000" font-family="sans-serif" font-size="13" lengthAdjust="spacing" textLength="131" x="31" y="405.7231">Adds an item to cart</text><polygon fill="#181818" points="332,435.9219,342,439.9219,332,443.9219,336,439.9219" style="stroke:#181818;stroke-width:1.0;"/><line style="stroke:#181818;stroke-width:1.0;" x1="184" x2="338" y1="439.9219" y2="439.9219"/><text fill="#000000" font-family="sans-serif" font-size="13" lengthAdjust="spacing" textLength="141" x="191" y="434.856">POST add item to cart</text><polygon fill="#181818" points="585,465.0547,595,469.0547,585,473.0547,589,469.0547" style="stroke:#181818;stroke-width:1.0;"/><line style="stroke:#181818;stroke-width:1.0;" x1="354" x2="591" y1="469.0547" y2="469.0547"/><text fill="#000000" font-family="sans-serif" font-size="13" lengthAdjust="spacing" textLength="224" x="361" y="463.9888">POST make reserverations for item</text><polygon fill="#181818" points="365,494.1875,355,498.1875,365,502.1875,361,498.1875" style="stroke:#181818;stroke-width:1.0;"/><line style="stroke:#181818;stroke-width:1.0;" x1="359" x2="601" y1="498.1875" y2="498.1875"/><text fill="#000000" font-family="sans-serif" font-size="13" lengthAdjust="spacing" textLength="15" x="371" y="493.1216">ok</text><polygon fill="#181818" points="708.5,523.3203,718.5,527.3203,708.5,531.3203,712.5,527.3203" style="stroke:#181818;stroke-width:1.0;"/><line style="stroke:#181818;stroke-width:1.0;" x1="354" x2="714.5" y1="527.3203" y2="527.3203"/><text fill="#000000" font-family="sans-serif" font-size="13" lengthAdjust="spacing" textLength="132" x="361" y="522.2544">PUT add item to cart</text><polygon fill="#181818" points="365,552.4531,355,556.4531,365,560.4531,361,556.4531" style="stroke:#181818;stroke-width:1.0;"/><line style="stroke:#181818;stroke-width:1.0;" x1="359" x2="724.5" y1="556.4531" y2="556.4531"/><text fill="#000000" font-family="sans-serif" font-size="13" lengthAdjust="spacing" textLength="15" x="371" y="551.3872">ok</text><polygon fill="#181818" points="195,581.5859,185,585.5859,195,589.5859,191,585.5859" style="stroke:#181818;stroke-width:1.0;"/><line style="stroke:#181818;stroke-width:1.0;" x1="189" x2="348" y1="585.5859" y2="585.5859"/><text fill="#000000" font-family="sans-serif" font-size="13" lengthAdjust="spacing" textLength="15" x="201" y="580.52">ok</text><polygon fill="#181818" points="35,610.7188,25,614.7188,35,618.7188,31,614.7188" style="stroke:#181818;stroke-width:1.0;"/><line style="stroke:#181818;stroke-width:1.0;" x1="29" x2="178" y1="614.7188" y2="614.7188"/><text fill="#000000" font-family="sans-serif" font-size="13" lengthAdjust="spacing" textLength="15" x="41" y="609.6528">ok</text><rect fill="#EEEEEE" height="3" style="stroke:#EEEEEE;stroke-width:1.0;" width="912" x="0" y="643.2852"/><line style="stroke:#000000;stroke-width:1.0;" x1="0" x2="912" y1="643.2852" y2="643.2852"/><line style="stroke:#000000;stroke-width:1.0;" x1="0" x2="912" y1="646.2852" y2="646.2852"/><rect fill="#EEEEEE" height="23.1328" style="stroke:#000000;stroke-width:2.0;" width="135" x="388.5" y="632.7188"/><text fill="#000000" font-family="sans-serif" font-size="13" font-weight="bold" lengthAdjust="spacing" textLength="116" x="394.5" y="648.7856">Order Checkout</text><polygon fill="#181818" points="162,682.9844,172,686.9844,162,690.9844,166,686.9844" style="stroke:#181818;stroke-width:1.0;"/><line style="stroke:#181818;stroke-width:1.0;" x1="24" x2="168" y1="686.9844" y2="686.9844"/><text fill="#000000" font-family="sans-serif" font-size="13" lengthAdjust="spacing" textLength="60" x="31" y="681.9185">Checkout</text><polygon fill="#181818" points="332,712.1172,342,716.1172,332,720.1172,336,716.1172" style="stroke:#181818;stroke-width:1.0;"/><line style="stroke:#181818;stroke-width:1.0;" x1="184" x2="338" y1="716.1172" y2="716.1172"/><text fill="#000000" font-family="sans-serif" font-size="13" lengthAdjust="spacing" textLength="124" x="191" y="711.0513">POST confirm order</text><line style="stroke:#181818;stroke-width:1.0;" x1="354" x2="401" y1="740.25" y2="740.25"/><line style="stroke:#181818;stroke-width:1.0;" x1="401" x2="401" y1="740.25" y2="753.25"/><line style="stroke:#181818;stroke-width:1.0;" x1="360" x2="401" y1="753.25" y2="753.25"/><polygon fill="#181818" points="370,749.25,360,753.25,370,757.25,366,753.25" style="stroke:#181818;stroke-width:1.0;"/><text fill="#000000" font-family="sans-serif" font-size="13" lengthAdjust="spacing" textLength="90" x="366" y="735.1841">calculate total</text><polygon fill="#181818" points="708.5,783.3828,718.5,787.3828,708.5,791.3828,712.5,787.3828" style="stroke:#181818;stroke-width:1.0;"/><line style="stroke:#181818;stroke-width:1.0;" x1="359" x2="714.5" y1="787.3828" y2="787.3828"/><text fill="#000000" font-family="sans-serif" font-size="13" lengthAdjust="spacing" textLength="54" x="366" y="782.3169">GET cart</text><polygon fill="#181818" points="370,812.5156,360,816.5156,370,820.5156,366,816.5156" style="stroke:#181818;stroke-width:1.0;"/><line style="stroke:#181818;stroke-width:1.0;" x1="364" x2="724.5" y1="816.5156" y2="816.5156"/><text fill="#000000" font-family="sans-serif" font-size="13" lengthAdjust="spacing" textLength="25" x="376" y="811.4497">cart</text><path d="M268,831.5156 L345,831.5156 L345,838.6484 L335,848.6484 L268,848.6484 L268,831.5156 " fill="#EEEEEE" style="stroke:#000000;stroke-width:1.5;"/><rect fill="none" height="75.3984" style="stroke:#000000;stroke-width:1.5;" width="409.5" x="268" y="831.5156"/><text fill="#000000" font-family="sans-serif" font-size="13" font-weight="bold" lengthAdjust="spacing" textLength="32" x="283" y="844.5825">loop</text><text fill="#000000" font-family="sans-serif" font-size="11" font-weight="bold" lengthAdjust="spacing" textLength="159" x="360" y="843.7261">[number of items in cart]</text><polygon fill="#181818" points="585,865.7813,595,869.7813,585,873.7813,589,869.7813" style="stroke:#181818;stroke-width:1.0;"/><line style="stroke:#181818;stroke-width:1.0;" x1="359" x2="591" y1="869.7813" y2="869.7813"/><text fill="#000000" font-family="sans-serif" font-size="13" lengthAdjust="spacing" textLength="124" x="366" y="864.7153">GET product details</text><polygon fill="#181818" points="370,894.9141,360,898.9141,370,902.9141,366,898.9141" style="stroke:#181818;stroke-width:1.0;"/><line style="stroke:#181818;stroke-width:1.0;" x1="364" x2="601" y1="898.9141" y2="898.9141"/><text fill="#000000" font-family="sans-serif" font-size="13" lengthAdjust="spacing" textLength="95" x="376" y="893.8481">product details</text><line style="stroke:#181818;stroke-width:1.0;" x1="359" x2="401" y1="940.0469" y2="940.0469"/><line style="stroke:#181818;stroke-width:1.0;" x1="401" x2="401" y1="940.0469" y2="953.0469"/><line style="stroke:#181818;stroke-width:1.0;" x1="354" x2="401" y1="953.0469" y2="953.0469"/><polygon fill="#181818" points="364,949.0469,354,953.0469,364,957.0469,360,953.0469" style="stroke:#181818;stroke-width:1.0;"/><text fill="#000000" font-family="sans-serif" font-size="13" lengthAdjust="spacing" textLength="58" x="366" y="934.981">cart total</text><polygon fill="#181818" points="817,973.1797,827,977.1797,817,981.1797,821,977.1797" style="stroke:#181818;stroke-width:1.0;"/><line style="stroke:#181818;stroke-width:1.0;" x1="354" x2="823" y1="977.1797" y2="977.1797"/><text fill="#000000" font-family="sans-serif" font-size="13" lengthAdjust="spacing" textLength="103" x="361" y="972.1138">POST start saga</text><path d="M761,990.1797 L761,1030.1797 L907,1030.1797 L907,1000.1797 L897,990.1797 L761,990.1797 " fill="#FEFFDD" style="stroke:#181818;stroke-width:0.5;"/><path d="M897,990.1797 L897,1000.1797 L907,1000.1797 L897,990.1797 " fill="#FEFFDD" style="stroke:#181818;stroke-width:0.5;"/><text fill="#000000" font-family="sans-serif" font-size="13" lengthAdjust="spacing" textLength="125" x="767" y="1007.2466">Asynchronous saga</text><text fill="#000000" font-family="sans-serif" font-size="13" lengthAdjust="spacing" textLength="103" x="767" y="1022.3794">execution starts</text><polygon fill="#181818" points="365,1052.5781,355,1056.5781,365,1060.5781,361,1056.5781" style="stroke:#181818;stroke-width:1.0;"/><line style="stroke:#181818;stroke-width:1.0;" x1="359" x2="833" y1="1056.5781" y2="1056.5781"/><text fill="#000000" font-family="sans-serif" font-size="13" lengthAdjust="spacing" textLength="15" x="371" y="1051.5122">ok</text><polygon fill="#181818" points="708.5,1081.7109,718.5,1085.7109,708.5,1089.7109,712.5,1085.7109" style="stroke:#181818;stroke-width:1.0;"/><line style="stroke:#181818;stroke-width:1.0;" x1="354" x2="714.5" y1="1085.7109" y2="1085.7109"/><text fill="#000000" font-family="sans-serif" font-size="13" lengthAdjust="spacing" textLength="77" x="361" y="1080.645">DELETE cart</text><polygon fill="#181818" points="365,1110.8438,355,1114.8438,365,1118.8438,361,1114.8438" style="stroke:#181818;stroke-width:1.0;"/><line style="stroke:#181818;stroke-width:1.0;" x1="359" x2="724.5" y1="1114.8438" y2="1114.8438"/><text fill="#000000" font-family="sans-serif" font-size="13" lengthAdjust="spacing" textLength="15" x="371" y="1109.7778">ok</text><polygon fill="#181818" points="195,1139.9766,185,1143.9766,195,1147.9766,191,1143.9766" style="stroke:#181818;stroke-width:1.0;"/><line style="stroke:#181818;stroke-width:1.0;" x1="189" x2="348" y1="1143.9766" y2="1143.9766"/><text fill="#000000" font-family="sans-serif" font-size="13" lengthAdjust="spacing" textLength="15" x="201" y="1138.9106">ok</text><polygon fill="#181818" points="35,1169.1094,25,1173.1094,35,1177.1094,31,1173.1094" style="stroke:#181818;stroke-width:1.0;"/><line style="stroke:#181818;stroke-width:1.0;" x1="29" x2="178" y1="1173.1094" y2="1173.1094"/><text fill="#000000" font-family="sans-serif" font-size="13" lengthAdjust="spacing" textLength="15" x="41" y="1168.0435">ok</text><!--SRC=[hPJDQkim48NtUeeXss8kt6Lf2hTj286M19BikfdAaqR4bb993ktRtv6S7yauRXVrBZEVZkOSHl7ALmHB-cX8Iu8dXUyMQzWO2qkFkaHRmjhXEpEID5fbe83Lt-95IMiSsOEIv8H0wVb4-utMN1z1zg63XgjYZzOhgVQeFNCplZWgZ59ETQa7b3lIvGMEr5jRpU6PFf3cKRuoM9sgEVp8FpeJC2ovcdDpAxVal4MMk70cgGen7iEKF2oiAHlf7Op7GWJ7KDpph71p0xUm237-sHyHmUNOF1ffcUba1GbnwZ5uDZ48tXK9M1GCflTnDz7Cks7OsEyqWhL_PGapJpLu0p6rFdiCEK0DwWZ687jDBkRB5I1hTj3hRkE96dS4biBM4SUkZ7PnKOFAO0Hcbuk7wuwwwy51M2go5vMU24Ez4nwNGcnpMtBzSKjoPvh-q4xDWQ2aqHjbQruuLikDT729bMmgzCHMF5RNJ8VL6J8QUvKnUz1D_SRpcaqCA3oajXcUm0-N4qhog2hNENDrJyzyUDjNp9wdxFEPliiaHUS3p_zaABJXXCmX64jPtc3tfUNM6cqQ5z5NJPyacx1ghK3dgMNdlrcrfydpP3NvnGtx3m00]--></g></svg>