<?xml version="1.0" encoding="us-ascii" standalone="no"?><svg xmlns="http://www.w3.org/2000/svg" xmlns:xlink="http://www.w3.org/1999/xlink" contentStyleType="text/css" height="621px" preserveAspectRatio="none" style="width:644px;height:621px;background:#FFFFFF;" version="1.1" viewBox="0 0 644 621" width="644px" zoomAndPan="magnify"><defs/><g><text fill="#000000" font-family="sans-serif" font-size="14" font-weight="bold" lengthAdjust="spacing" textLength="453" x="94.5" y="27.9951">Sequence Diagram for Executing Saga - T2-Microservices</text><rect fill="#FFFFFF" height="34.1328" style="stroke:#181818;stroke-width:1.0;" width="10" x="50.5" y="112.7266"/><rect fill="#FFFFFF" height="29.1328" style="stroke:#181818;stroke-width:1.0;" width="10" x="50.5" y="234.2578"/><rect fill="#FFFFFF" height="29.1328" style="stroke:#181818;stroke-width:1.0;" width="10" x="50.5" y="409.0547"/><rect fill="#FFFFFF" height="35.1328" style="stroke:#181818;stroke-width:1.0;" width="10" x="50.5" y="525.5859"/><rect fill="#FFFFFF" height="29.1328" style="stroke:#181818;stroke-width:1.0;" width="10" x="314.5" y="175.9922"/><rect fill="#FFFFFF" height="87.3984" style="stroke:#181818;stroke-width:1.0;" width="10" x="388" y="292.5234"/><rect fill="#FFFFFF" height="29.1328" style="stroke:#181818;stroke-width:1.0;" width="10" x="473.5" y="467.3203"/><rect fill="#FFFFFF" height="29.1328" style="stroke:#181818;stroke-width:1.0;" width="10" x="577.5" y="321.6563"/><line style="stroke:#181818;stroke-width:0.5;stroke-dasharray:5.0,5.0;" x1="55" x2="55" y1="73.5938" y2="585.7188"/><line style="stroke:#181818;stroke-width:0.5;stroke-dasharray:5.0,5.0;" x1="216" x2="216" y1="73.5938" y2="585.7188"/><line style="stroke:#181818;stroke-width:0.5;stroke-dasharray:5.0,5.0;" x1="319" x2="319" y1="73.5938" y2="585.7188"/><line style="stroke:#181818;stroke-width:0.5;stroke-dasharray:5.0,5.0;" x1="393" x2="393" y1="73.5938" y2="585.7188"/><line style="stroke:#181818;stroke-width:0.5;stroke-dasharray:5.0,5.0;" x1="478" x2="478" y1="73.5938" y2="585.7188"/><line style="stroke:#181818;stroke-width:0.5;stroke-dasharray:5.0,5.0;" x1="582" x2="582" y1="73.5938" y2="585.7188"/><rect fill="#E2E2F0" height="30.2969" rx="2.5" ry="2.5" style="stroke:#181818;stroke-width:0.5;" width="101" x="5" y="42.2969"/><text fill="#000000" font-family="sans-serif" font-size="14" lengthAdjust="spacing" textLength="87" x="12" y="62.292">Orchestrator</text><rect fill="#E2E2F0" height="30.2969" rx="2.5" ry="2.5" style="stroke:#181818;stroke-width:0.5;" width="101" x="5" y="584.7188"/><text fill="#000000" font-family="sans-serif" font-size="14" lengthAdjust="spacing" textLength="87" x="12" y="604.7139">Orchestrator</text><path d="M193,47.2969 L240,47.2969 C245,47.2969 245,60.4453 245,60.4453 C245,60.4453 245,73.5938 240,73.5938 L193,73.5938 C188,73.5938 188,60.4453 188,60.4453 C188,60.4453 188,47.2969 193,47.2969 " fill="#E2E2F0" style="stroke:#181818;stroke-width:0.5;"/><path d="M240,47.2969 C235,47.2969 235,60.4453 235,60.4453 C235,73.5938 240,73.5938 240,73.5938 " fill="none" style="stroke:#181818;stroke-width:0.5;"/><text fill="#000000" font-family="sans-serif" font-size="14" lengthAdjust="spacing" textLength="37" x="193" y="65.292">Kafka</text><path d="M193,584.7188 L240,584.7188 C245,584.7188 245,597.8672 245,597.8672 C245,597.8672 245,611.0156 240,611.0156 L193,611.0156 C188,611.0156 188,597.8672 188,597.8672 C188,597.8672 188,584.7188 193,584.7188 " fill="#E2E2F0" style="stroke:#181818;stroke-width:0.5;"/><path d="M240,584.7188 C235,584.7188 235,597.8672 235,597.8672 C235,611.0156 240,611.0156 240,611.0156 " fill="none" style="stroke:#181818;stroke-width:0.5;"/><text fill="#000000" font-family="sans-serif" font-size="14" lengthAdjust="spacing" textLength="37" x="193" y="602.7139">Kafka</text><rect fill="#E2E2F0" height="30.2969" rx="2.5" ry="2.5" style="stroke:#181818;stroke-width:0.5;" width="53" x="293" y="42.2969"/><text fill="#000000" font-family="sans-serif" font-size="14" lengthAdjust="spacing" textLength="39" x="300" y="62.292">Order</text><rect fill="#E2E2F0" height="30.2969" rx="2.5" ry="2.5" style="stroke:#181818;stroke-width:0.5;" width="53" x="293" y="584.7188"/><text fill="#000000" font-family="sans-serif" font-size="14" lengthAdjust="spacing" textLength="39" x="300" y="604.7139">Order</text><rect fill="#E2E2F0" height="30.2969" rx="2.5" ry="2.5" style="stroke:#181818;stroke-width:0.5;" width="74" x="356" y="42.2969"/><text fill="#000000" font-family="sans-serif" font-size="14" lengthAdjust="spacing" textLength="60" x="363" y="62.292">Payment</text><rect fill="#E2E2F0" height="30.2969" rx="2.5" ry="2.5" style="stroke:#181818;stroke-width:0.5;" width="74" x="356" y="584.7188"/><text fill="#000000" font-family="sans-serif" font-size="14" lengthAdjust="spacing" textLength="60" x="363" y="604.7139">Payment</text><rect fill="#E2E2F0" height="30.2969" rx="2.5" ry="2.5" style="stroke:#181818;stroke-width:0.5;" width="77" x="440" y="42.2969"/><text fill="#000000" font-family="sans-serif" font-size="14" lengthAdjust="spacing" textLength="63" x="447" y="62.292">Inventory</text><rect fill="#E2E2F0" height="30.2969" rx="2.5" ry="2.5" style="stroke:#181818;stroke-width:0.5;" width="77" x="440" y="584.7188"/><text fill="#000000" font-family="sans-serif" font-size="14" lengthAdjust="spacing" textLength="63" x="447" y="604.7139">Inventory</text><rect fill="#E2E2F0" height="30.2969" rx="2.5" ry="2.5" style="stroke:#181818;stroke-width:0.5;" width="111" x="527" y="42.2969"/><text fill="#000000" font-family="sans-serif" font-size="14" lengthAdjust="spacing" textLength="97" x="534" y="62.292">CreditInstitute</text><rect fill="#E2E2F0" height="30.2969" rx="2.5" ry="2.5" style="stroke:#181818;stroke-width:0.5;" width="111" x="527" y="584.7188"/><text fill="#000000" font-family="sans-serif" font-size="14" lengthAdjust="spacing" textLength="97" x="534" y="604.7139">CreditInstitute</text><rect fill="#FFFFFF" height="34.1328" style="stroke:#181818;stroke-width:1.0;" width="10" x="50.5" y="112.7266"/><rect fill="#FFFFFF" height="29.1328" style="stroke:#181818;stroke-width:1.0;" width="10" x="50.5" y="234.2578"/><rect fill="#FFFFFF" height="29.1328" style="stroke:#181818;stroke-width:1.0;" width="10" x="50.5" y="409.0547"/><rect fill="#FFFFFF" height="35.1328" style="stroke:#181818;stroke-width:1.0;" width="10" x="50.5" y="525.5859"/><rect fill="#FFFFFF" height="29.1328" style="stroke:#181818;stroke-width:1.0;" width="10" x="314.5" y="175.9922"/><rect fill="#FFFFFF" height="87.3984" style="stroke:#181818;stroke-width:1.0;" width="10" x="388" y="292.5234"/><rect fill="#FFFFFF" height="29.1328" style="stroke:#181818;stroke-width:1.0;" width="10" x="473.5" y="467.3203"/><rect fill="#FFFFFF" height="29.1328" style="stroke:#181818;stroke-width:1.0;" width="10" x="577.5" y="321.6563"/><line style="stroke:#181818;stroke-width:1.0;" x1="55.5" x2="102.5" y1="99.7266" y2="99.7266"/><line style="stroke:#181818;stroke-width:1.0;" x1="102.5" x2="102.5" y1="99.7266" y2="112.7266"/><line style="stroke:#181818;stroke-width:1.0;" x1="61.5" x2="102.5" y1="112.7266" y2="112.7266"/><polygon fill="#181818" points="71.5,108.7266,61.5,112.7266,71.5,116.7266,67.5,112.7266" style="stroke:#181818;stroke-width:1.0;"/><text fill="#000000" font-family="sans-serif" font-size="13" lengthAdjust="spacing" textLength="67" x="67.5" y="94.6606">Start saga</text><polygon fill="#181818" points="204.5,142.8594,214.5,146.8594,204.5,150.8594,208.5,146.8594" style="stroke:#181818;stroke-width:1.0;"/><line style="stroke:#181818;stroke-width:1.0;stroke-dasharray:2.0,2.0;" x1="55.5" x2="210.5" y1="146.8594" y2="146.8594"/><text fill="#000000" font-family="sans-serif" font-size="13" lengthAdjust="spacing" textLength="79" x="62.5" y="141.7935">create order</text><polygon fill="#181818" points="302.5,171.9922,312.5,175.9922,302.5,179.9922,306.5,175.9922" style="stroke:#181818;stroke-width:1.0;"/><line style="stroke:#181818;stroke-width:1.0;stroke-dasharray:2.0,2.0;" x1="216.5" x2="308.5" y1="175.9922" y2="175.9922"/><text fill="#000000" font-family="sans-serif" font-size="13" lengthAdjust="spacing" textLength="79" x="223.5" y="170.9263">create order</text><polygon fill="#181818" points="227.5,201.125,217.5,205.125,227.5,209.125,223.5,205.125" style="stroke:#181818;stroke-width:1.0;"/><line style="stroke:#181818;stroke-width:1.0;stroke-dasharray:2.0,2.0;" x1="221.5" x2="318.5" y1="205.125" y2="205.125"/><text fill="#000000" font-family="sans-serif" font-size="13" lengthAdjust="spacing" textLength="51" x="233.5" y="200.0591">success</text><polygon fill="#181818" points="71.5,230.2578,61.5,234.2578,71.5,238.2578,67.5,234.2578" style="stroke:#181818;stroke-width:1.0;"/><line style="stroke:#181818;stroke-width:1.0;stroke-dasharray:2.0,2.0;" x1="65.5" x2="215.5" y1="234.2578" y2="234.2578"/><text fill="#000000" font-family="sans-serif" font-size="13" lengthAdjust="spacing" textLength="51" x="77.5" y="229.1919">success</text><polygon fill="#181818" points="204.5,259.3906,214.5,263.3906,204.5,267.3906,208.5,263.3906" style="stroke:#181818;stroke-width:1.0;"/><line style="stroke:#181818;stroke-width:1.0;stroke-dasharray:2.0,2.0;" x1="55.5" x2="210.5" y1="263.3906" y2="263.3906"/><text fill="#000000" font-family="sans-serif" font-size="13" lengthAdjust="spacing" textLength="77" x="62.5" y="258.3247">do payment</text><polygon fill="#181818" points="376,288.5234,386,292.5234,376,296.5234,380,292.5234" style="stroke:#181818;stroke-width:1.0;"/><line style="stroke:#181818;stroke-width:1.0;stroke-dasharray:2.0,2.0;" x1="216.5" x2="382" y1="292.5234" y2="292.5234"/><text fill="#000000" font-family="sans-serif" font-size="13" lengthAdjust="spacing" textLength="77" x="223.5" y="287.4575">do payment</text><polygon fill="#181818" points="565.5,317.6563,575.5,321.6563,565.5,325.6563,569.5,321.6563" style="stroke:#181818;stroke-width:1.0;"/><line style="stroke:#181818;stroke-width:1.0;" x1="398" x2="571.5" y1="321.6563" y2="321.6563"/><text fill="#000000" font-family="sans-serif" font-size="13" lengthAdjust="spacing" textLength="77" x="405" y="316.5903">do payment</text><polygon fill="#181818" points="409,346.7891,399,350.7891,409,354.7891,405,350.7891" style="stroke:#181818;stroke-width:1.0;"/><line style="stroke:#181818;stroke-width:1.0;" x1="403" x2="581.5" y1="350.7891" y2="350.7891"/><text fill="#000000" font-family="sans-serif" font-size="13" lengthAdjust="spacing" textLength="15" x="415" y="345.7231">ok</text><polygon fill="#181818" points="227.5,375.9219,217.5,379.9219,227.5,383.9219,223.5,379.9219" style="stroke:#181818;stroke-width:1.0;"/><line style="stroke:#181818;stroke-width:1.0;stroke-dasharray:2.0,2.0;" x1="221.5" x2="392" y1="379.9219" y2="379.9219"/><text fill="#000000" font-family="sans-serif" font-size="13" lengthAdjust="spacing" textLength="51" x="233.5" y="374.856">success</text><polygon fill="#181818" points="71.5,405.0547,61.5,409.0547,71.5,413.0547,67.5,409.0547" style="stroke:#181818;stroke-width:1.0;"/><line style="stroke:#181818;stroke-width:1.0;stroke-dasharray:2.0,2.0;" x1="65.5" x2="215.5" y1="409.0547" y2="409.0547"/><text fill="#000000" font-family="sans-serif" font-size="13" lengthAdjust="spacing" textLength="51" x="77.5" y="403.9888">success</text><polygon fill="#181818" points="204.5,434.1875,214.5,438.1875,204.5,442.1875,208.5,438.1875" style="stroke:#181818;stroke-width:1.0;"/><line style="stroke:#181818;stroke-width:1.0;stroke-dasharray:2.0,2.0;" x1="55.5" x2="210.5" y1="438.1875" y2="438.1875"/><text fill="#000000" font-family="sans-serif" font-size="13" lengthAdjust="spacing" textLength="132" x="62.5" y="433.1216">commit reservations</text><polygon fill="#181818" points="461.5,463.3203,471.5,467.3203,461.5,471.3203,465.5,467.3203" style="stroke:#181818;stroke-width:1.0;"/><line style="stroke:#181818;stroke-width:1.0;stroke-dasharray:2.0,2.0;" x1="216.5" x2="467.5" y1="467.3203" y2="467.3203"/><text fill="#000000" font-family="sans-serif" font-size="13" lengthAdjust="spacing" textLength="132" x="223.5" y="462.2544">commit reservations</text><polygon fill="#181818" points="227.5,492.4531,217.5,496.4531,227.5,500.4531,223.5,496.4531" style="stroke:#181818;stroke-width:1.0;"/><line style="stroke:#181818;stroke-width:1.0;stroke-dasharray:2.0,2.0;" x1="221.5" x2="477.5" y1="496.4531" y2="496.4531"/><text fill="#000000" font-family="sans-serif" font-size="13" lengthAdjust="spacing" textLength="51" x="233.5" y="491.3872">success</text><polygon fill="#181818" points="71.5,521.5859,61.5,525.5859,71.5,529.5859,67.5,525.5859" style="stroke:#181818;stroke-width:1.0;"/><line style="stroke:#181818;stroke-width:1.0;stroke-dasharray:2.0,2.0;" x1="65.5" x2="215.5" y1="525.5859" y2="525.5859"/><text fill="#000000" font-family="sans-serif" font-size="13" lengthAdjust="spacing" textLength="51" x="77.5" y="520.52">success</text><line style="stroke:#181818;stroke-width:1.0;" x1="60.5" x2="102.5" y1="559.7188" y2="559.7188"/><line style="stroke:#181818;stroke-width:1.0;" x1="102.5" x2="102.5" y1="559.7188" y2="572.7188"/><line style="stroke:#181818;stroke-width:1.0;" x1="55.5" x2="102.5" y1="572.7188" y2="572.7188"/><polygon fill="#181818" points="65.5,568.7188,55.5,572.7188,65.5,576.7188,61.5,572.7188" style="stroke:#181818;stroke-width:1.0;"/><text fill="#000000" font-family="sans-serif" font-size="13" lengthAdjust="spacing" textLength="59" x="67.5" y="554.6528">End saga</text><!--SRC=[dPBFJiCm3CRlUGhVE4ozS4JJBh33XD2GoWjOgJUiqQGaxiJU7hTP_sImIP3Bra-_VFRdM5W-24hwRCbPWYV6VS0QTZx0-ejiA-psKE8UeO2t- -A5RV2Hmf4jHMCQ3CAM6tG2ss3VAKf0qRjwC8AVIKOhj0JfFEFkW30TPG-TT65OKSWXtqaPz8gdclHt1ZL9oh2DEwhamsd2U90oy35GnR9nKLXQeGwqlSI3PCmy5XIhB2Oi5l00fQWbH1sRCNSfoCKjlTOdrd_AQmdKOYdUeA_ITtByXLZgrKJq7h6r-YOnhzCnYUvT1aQREW_kPbkL7uSvDNLMak6C67H5BYPs5LqMFz2-hZ_C8ew-_mWvFlljwVkwPe50tMAZi7TnbdVSa_D3N8MxDYRux-tUNAlURksgj5JV]--></g></svg>