<?xml version="1.0" encoding="us-ascii" standalone="no"?><svg xmlns="http://www.w3.org/2000/svg" xmlns:xlink="http://www.w3.org/1999/xlink" contentStyleType="text/css" height="1076px" preserveAspectRatio="none" style="width:877px;height:1076px;background:#FFFFFF;" version="1.1" viewBox="0 0 877 1076" width="877px" zoomAndPan="magnify"><defs/><g><text fill="#000000" font-family="sans-serif" font-size="14" font-weight="bold" lengthAdjust="spacing" textLength="582" x="146" y="27.9951">Sequence Diagram for Test Plan Execution with JMeter - T2-Microservices</text><rect fill="#FFFFFF" height="903.8516" style="stroke:#181818;stroke-width:1.0;" width="10" x="43.5" y="112.7266"/><rect fill="#FFFFFF" height="87.3984" style="stroke:#181818;stroke-width:1.0;" width="10" x="320.5" y="213.125"/><rect fill="#FFFFFF" height="145.6641" style="stroke:#181818;stroke-width:1.0;" width="10" x="320.5" y="371.7891"/><rect fill="#FFFFFF" height="427.8594" style="stroke:#181818;stroke-width:1.0;" width="10" x="320.5" y="553.5859"/><rect fill="#FFFFFF" height="187.7969" style="stroke:#181818;stroke-width:1.0;" width="10" x="325.5" y="590.7188"/><rect fill="#FFFFFF" height="29.1328" style="stroke:#181818;stroke-width:1.0;" width="10" x="560.5" y="242.2578"/><rect fill="#FFFFFF" height="29.1328" style="stroke:#181818;stroke-width:1.0;" width="10" x="560.5" y="400.9219"/><rect fill="#FFFFFF" height="29.1328" style="stroke:#181818;stroke-width:1.0;" width="10" x="560.5" y="707.25"/><rect fill="#FFFFFF" height="29.1328" style="stroke:#181818;stroke-width:1.0;" width="10" x="684" y="459.1875"/><rect fill="#FFFFFF" height="29.1328" style="stroke:#181818;stroke-width:1.0;" width="10" x="684" y="624.8516"/><rect fill="#FFFFFF" height="29.1328" style="stroke:#181818;stroke-width:1.0;" width="10" x="684" y="923.1797"/><rect fill="#FFFFFF" height="79.3984" style="stroke:#181818;stroke-width:1.0;" width="10" x="792.5" y="814.6484"/><rect fill="none" height="350.5938" style="stroke:#000000;stroke-width:1.5;" width="737" x="10" y="174.8594"/><rect fill="none" height="75.3984" style="stroke:#000000;stroke-width:1.5;" width="396.5" x="244.5" y="668.9844"/><line style="stroke:#181818;stroke-width:0.5;stroke-dasharray:5.0,5.0;" x1="48" x2="48" y1="73.5938" y2="1041.5781"/><line style="stroke:#181818;stroke-width:0.5;stroke-dasharray:5.0,5.0;" x1="325.5" x2="325.5" y1="73.5938" y2="1041.5781"/><line style="stroke:#181818;stroke-width:0.5;stroke-dasharray:5.0,5.0;" x1="565" x2="565" y1="73.5938" y2="1041.5781"/><line style="stroke:#181818;stroke-width:0.5;stroke-dasharray:5.0,5.0;" x1="689" x2="689" y1="73.5938" y2="1041.5781"/><line style="stroke:#181818;stroke-width:0.5;stroke-dasharray:5.0,5.0;" x1="797" x2="797" y1="73.5938" y2="1041.5781"/><rect fill="#E2E2F0" height="30.2969" rx="2.5" ry="2.5" style="stroke:#181818;stroke-width:0.5;" width="57" x="20" y="42.2969"/><text fill="#000000" font-family="sans-serif" font-size="14" lengthAdjust="spacing" textLength="43" x="27" y="62.292">JMeter</text><rect fill="#E2E2F0" height="30.2969" rx="2.5" ry="2.5" style="stroke:#181818;stroke-width:0.5;" width="57" x="20" y="1040.5781"/><text fill="#000000" font-family="sans-serif" font-size="14" lengthAdjust="spacing" textLength="43" x="27" y="1060.5732">JMeter</text><rect fill="#E2E2F0" height="30.2969" rx="2.5" ry="2.5" style="stroke:#181818;stroke-width:0.5;" width="142" x="254.5" y="42.2969"/><text fill="#000000" font-family="sans-serif" font-size="14" lengthAdjust="spacing" textLength="128" x="261.5" y="62.292">UIBackend Service</text><rect fill="#E2E2F0" height="30.2969" rx="2.5" ry="2.5" style="stroke:#181818;stroke-width:0.5;" width="142" x="254.5" y="1040.5781"/><text fill="#000000" font-family="sans-serif" font-size="14" lengthAdjust="spacing" textLength="128" x="261.5" y="1060.5732">UIBackend Service</text><rect fill="#E2E2F0" height="30.2969" rx="2.5" ry="2.5" style="stroke:#181818;stroke-width:0.5;" width="131" x="500" y="42.2969"/><text fill="#000000" font-family="sans-serif" font-size="14" lengthAdjust="spacing" textLength="117" x="507" y="62.292">Inventory Service</text><rect fill="#E2E2F0" height="30.2969" rx="2.5" ry="2.5" style="stroke:#181818;stroke-width:0.5;" width="131" x="500" y="1040.5781"/><text fill="#000000" font-family="sans-serif" font-size="14" lengthAdjust="spacing" textLength="117" x="507" y="1060.5732">Inventory Service</text><rect fill="#E2E2F0" height="30.2969" rx="2.5" ry="2.5" style="stroke:#181818;stroke-width:0.5;" width="96" x="641" y="42.2969"/><text fill="#000000" font-family="sans-serif" font-size="14" lengthAdjust="spacing" textLength="82" x="648" y="62.292">Cart Service</text><rect fill="#E2E2F0" height="30.2969" rx="2.5" ry="2.5" style="stroke:#181818;stroke-width:0.5;" width="96" x="641" y="1040.5781"/><text fill="#000000" font-family="sans-serif" font-size="14" lengthAdjust="spacing" textLength="82" x="648" y="1060.5732">Cart Service</text><rect fill="#E2E2F0" height="30.2969" rx="2.5" ry="2.5" style="stroke:#181818;stroke-width:0.5;" width="101" x="747" y="42.2969"/><text fill="#000000" font-family="sans-serif" font-size="14" lengthAdjust="spacing" textLength="87" x="754" y="62.292">Orchestrator</text><rect fill="#E2E2F0" height="30.2969" rx="2.5" ry="2.5" style="stroke:#181818;stroke-width:0.5;" width="101" x="747" y="1040.5781"/><text fill="#000000" font-family="sans-serif" font-size="14" lengthAdjust="spacing" textLength="87" x="754" y="1060.5732">Orchestrator</text><rect fill="#FFFFFF" height="903.8516" style="stroke:#181818;stroke-width:1.0;" width="10" x="43.5" y="112.7266"/><rect fill="#FFFFFF" height="87.3984" style="stroke:#181818;stroke-width:1.0;" width="10" x="320.5" y="213.125"/><rect fill="#FFFFFF" height="145.6641" style="stroke:#181818;stroke-width:1.0;" width="10" x="320.5" y="371.7891"/><rect fill="#FFFFFF" height="427.8594" style="stroke:#181818;stroke-width:1.0;" width="10" x="320.5" y="553.5859"/><rect fill="#FFFFFF" height="187.7969" style="stroke:#181818;stroke-width:1.0;" width="10" x="325.5" y="590.7188"/><rect fill="#FFFFFF" height="29.1328" style="stroke:#181818;stroke-width:1.0;" width="10" x="560.5" y="242.2578"/><rect fill="#FFFFFF" height="29.1328" style="stroke:#181818;stroke-width:1.0;" width="10" x="560.5" y="400.9219"/><rect fill="#FFFFFF" height="29.1328" style="stroke:#181818;stroke-width:1.0;" width="10" x="560.5" y="707.25"/><rect fill="#FFFFFF" height="29.1328" style="stroke:#181818;stroke-width:1.0;" width="10" x="684" y="459.1875"/><rect fill="#FFFFFF" height="29.1328" style="stroke:#181818;stroke-width:1.0;" width="10" x="684" y="624.8516"/><rect fill="#FFFFFF" height="29.1328" style="stroke:#181818;stroke-width:1.0;" width="10" x="684" y="923.1797"/><rect fill="#FFFFFF" height="79.3984" style="stroke:#181818;stroke-width:1.0;" width="10" x="792.5" y="814.6484"/><line style="stroke:#181818;stroke-width:1.0;" x1="48.5" x2="95.5" y1="99.7266" y2="99.7266"/><line style="stroke:#181818;stroke-width:1.0;" x1="95.5" x2="95.5" y1="99.7266" y2="112.7266"/><line style="stroke:#181818;stroke-width:1.0;" x1="54.5" x2="95.5" y1="112.7266" y2="112.7266"/><polygon fill="#181818" points="64.5,108.7266,54.5,112.7266,64.5,116.7266,60.5,112.7266" style="stroke:#181818;stroke-width:1.0;"/><text fill="#000000" font-family="sans-serif" font-size="13" lengthAdjust="spacing" textLength="32" x="60.5" y="94.6606">Start</text><line style="stroke:#181818;stroke-width:1.0;" x1="53.5" x2="95.5" y1="146.8594" y2="146.8594"/><line style="stroke:#181818;stroke-width:1.0;" x1="95.5" x2="95.5" y1="146.8594" y2="159.8594"/><line style="stroke:#181818;stroke-width:1.0;" x1="54.5" x2="95.5" y1="159.8594" y2="159.8594"/><polygon fill="#181818" points="64.5,155.8594,54.5,159.8594,64.5,163.8594,60.5,159.8594" style="stroke:#181818;stroke-width:1.0;"/><text fill="#000000" font-family="sans-serif" font-size="13" lengthAdjust="spacing" textLength="129" x="60.5" y="141.7935">Generate session ID</text><path d="M10,174.8594 L87,174.8594 L87,181.9922 L77,191.9922 L10,191.9922 L10,174.8594 " fill="#EEEEEE" style="stroke:#000000;stroke-width:1.5;"/><rect fill="none" height="350.5938" style="stroke:#000000;stroke-width:1.5;" width="737" x="10" y="174.8594"/><text fill="#000000" font-family="sans-serif" font-size="13" font-weight="bold" lengthAdjust="spacing" textLength="32" x="25" y="187.9263">loop</text><text fill="#000000" font-family="sans-serif" font-size="11" font-weight="bold" lengthAdjust="spacing" textLength="159" x="102" y="187.0698">[number of items to add]</text><polygon fill="#181818" points="308.5,209.125,318.5,213.125,308.5,217.125,312.5,213.125" style="stroke:#181818;stroke-width:1.0;"/><line style="stroke:#181818;stroke-width:1.0;" x1="53.5" x2="314.5" y1="213.125" y2="213.125"/><text fill="#000000" font-family="sans-serif" font-size="13" lengthAdjust="spacing" textLength="88" x="60.5" y="208.0591">GET inventory</text><polygon fill="#181818" points="548.5,238.2578,558.5,242.2578,548.5,246.2578,552.5,242.2578" style="stroke:#181818;stroke-width:1.0;"/><line style="stroke:#181818;stroke-width:1.0;" x1="330.5" x2="554.5" y1="242.2578" y2="242.2578"/><text fill="#000000" font-family="sans-serif" font-size="13" lengthAdjust="spacing" textLength="88" x="337.5" y="237.1919">GET inventory</text><polygon fill="#181818" points="341.5,267.3906,331.5,271.3906,341.5,275.3906,337.5,271.3906" style="stroke:#181818;stroke-width:1.0;"/><line style="stroke:#181818;stroke-width:1.0;" x1="335.5" x2="564.5" y1="271.3906" y2="271.3906"/><text fill="#000000" font-family="sans-serif" font-size="13" lengthAdjust="spacing" textLength="59" x="347.5" y="266.3247">inventory</text><polygon fill="#181818" points="64.5,296.5234,54.5,300.5234,64.5,304.5234,60.5,300.5234" style="stroke:#181818;stroke-width:1.0;"/><line style="stroke:#181818;stroke-width:1.0;" x1="58.5" x2="324.5" y1="300.5234" y2="300.5234"/><text fill="#000000" font-family="sans-serif" font-size="13" lengthAdjust="spacing" textLength="59" x="70.5" y="295.4575">inventory</text><line style="stroke:#181818;stroke-width:1.0;" x1="53.5" x2="95.5" y1="329.6563" y2="329.6563"/><line style="stroke:#181818;stroke-width:1.0;" x1="95.5" x2="95.5" y1="329.6563" y2="342.6563"/><line style="stroke:#181818;stroke-width:1.0;" x1="54.5" x2="95.5" y1="342.6563" y2="342.6563"/><polygon fill="#181818" points="64.5,338.6563,54.5,342.6563,64.5,346.6563,60.5,342.6563" style="stroke:#181818;stroke-width:1.0;"/><text fill="#000000" font-family="sans-serif" font-size="13" lengthAdjust="spacing" textLength="112" x="60.5" y="324.5903">pick random item</text><polygon fill="#181818" points="308.5,367.7891,318.5,371.7891,308.5,375.7891,312.5,371.7891" style="stroke:#181818;stroke-width:1.0;"/><line style="stroke:#181818;stroke-width:1.0;" x1="53.5" x2="314.5" y1="371.7891" y2="371.7891"/><text fill="#000000" font-family="sans-serif" font-size="13" lengthAdjust="spacing" textLength="248" x="60.5" y="366.7231">POST add item to cart using session ID</text><polygon fill="#181818" points="548.5,396.9219,558.5,400.9219,548.5,404.9219,552.5,400.9219" style="stroke:#181818;stroke-width:1.0;"/><line style="stroke:#181818;stroke-width:1.0;" x1="330.5" x2="554.5" y1="400.9219" y2="400.9219"/><text fill="#000000" font-family="sans-serif" font-size="13" lengthAdjust="spacing" textLength="211" x="337.5" y="395.856">POST make reservations for item</text><polygon fill="#181818" points="341.5,426.0547,331.5,430.0547,341.5,434.0547,337.5,430.0547" style="stroke:#181818;stroke-width:1.0;"/><line style="stroke:#181818;stroke-width:1.0;" x1="335.5" x2="564.5" y1="430.0547" y2="430.0547"/><text fill="#000000" font-family="sans-serif" font-size="13" lengthAdjust="spacing" textLength="15" x="347.5" y="424.9888">ok</text><polygon fill="#181818" points="672,455.1875,682,459.1875,672,463.1875,676,459.1875" style="stroke:#181818;stroke-width:1.0;"/><line style="stroke:#181818;stroke-width:1.0;" x1="330.5" x2="678" y1="459.1875" y2="459.1875"/><text fill="#000000" font-family="sans-serif" font-size="13" lengthAdjust="spacing" textLength="132" x="337.5" y="454.1216">PUT add item to cart</text><polygon fill="#181818" points="341.5,484.3203,331.5,488.3203,341.5,492.3203,337.5,488.3203" style="stroke:#181818;stroke-width:1.0;"/><line style="stroke:#181818;stroke-width:1.0;" x1="335.5" x2="688" y1="488.3203" y2="488.3203"/><text fill="#000000" font-family="sans-serif" font-size="13" lengthAdjust="spacing" textLength="15" x="347.5" y="483.2544">ok</text><polygon fill="#181818" points="64.5,513.4531,54.5,517.4531,64.5,521.4531,60.5,517.4531" style="stroke:#181818;stroke-width:1.0;"/><line style="stroke:#181818;stroke-width:1.0;" x1="58.5" x2="324.5" y1="517.4531" y2="517.4531"/><text fill="#000000" font-family="sans-serif" font-size="13" lengthAdjust="spacing" textLength="15" x="70.5" y="512.3872">ok</text><polygon fill="#181818" points="308.5,549.5859,318.5,553.5859,308.5,557.5859,312.5,553.5859" style="stroke:#181818;stroke-width:1.0;"/><line style="stroke:#181818;stroke-width:1.0;" x1="53.5" x2="314.5" y1="553.5859" y2="553.5859"/><text fill="#000000" font-family="sans-serif" font-size="13" lengthAdjust="spacing" textLength="231" x="60.5" y="548.52">POST confirm order using session ID</text><line style="stroke:#181818;stroke-width:1.0;" x1="330.5" x2="377.5" y1="577.7188" y2="577.7188"/><line style="stroke:#181818;stroke-width:1.0;" x1="377.5" x2="377.5" y1="577.7188" y2="590.7188"/><line style="stroke:#181818;stroke-width:1.0;" x1="336.5" x2="377.5" y1="590.7188" y2="590.7188"/><polygon fill="#181818" points="346.5,586.7188,336.5,590.7188,346.5,594.7188,342.5,590.7188" style="stroke:#181818;stroke-width:1.0;"/><text fill="#000000" font-family="sans-serif" font-size="13" lengthAdjust="spacing" textLength="90" x="342.5" y="572.6528">calculate total</text><polygon fill="#181818" points="672,620.8516,682,624.8516,672,628.8516,676,624.8516" style="stroke:#181818;stroke-width:1.0;"/><line style="stroke:#181818;stroke-width:1.0;" x1="335.5" x2="678" y1="624.8516" y2="624.8516"/><text fill="#000000" font-family="sans-serif" font-size="13" lengthAdjust="spacing" textLength="54" x="342.5" y="619.7856">GET cart</text><polygon fill="#181818" points="346.5,649.9844,336.5,653.9844,346.5,657.9844,342.5,653.9844" style="stroke:#181818;stroke-width:1.0;"/><line style="stroke:#181818;stroke-width:1.0;" x1="340.5" x2="688" y1="653.9844" y2="653.9844"/><text fill="#000000" font-family="sans-serif" font-size="13" lengthAdjust="spacing" textLength="25" x="352.5" y="648.9185">cart</text><path d="M244.5,668.9844 L321.5,668.9844 L321.5,676.1172 L311.5,686.1172 L244.5,686.1172 L244.5,668.9844 " fill="#EEEEEE" style="stroke:#000000;stroke-width:1.5;"/><rect fill="none" height="75.3984" style="stroke:#000000;stroke-width:1.5;" width="396.5" x="244.5" y="668.9844"/><text fill="#000000" font-family="sans-serif" font-size="13" font-weight="bold" lengthAdjust="spacing" textLength="32" x="259.5" y="682.0513">loop</text><text fill="#000000" font-family="sans-serif" font-size="11" font-weight="bold" lengthAdjust="spacing" textLength="159" x="336.5" y="681.1948">[number of items in cart]</text><polygon fill="#181818" points="548.5,703.25,558.5,707.25,548.5,711.25,552.5,707.25" style="stroke:#181818;stroke-width:1.0;"/><line style="stroke:#181818;stroke-width:1.0;" x1="335.5" x2="554.5" y1="707.25" y2="707.25"/><text fill="#000000" font-family="sans-serif" font-size="13" lengthAdjust="spacing" textLength="124" x="342.5" y="702.1841">GET product details</text><polygon fill="#181818" points="346.5,732.3828,336.5,736.3828,346.5,740.3828,342.5,736.3828" style="stroke:#181818;stroke-width:1.0;"/><line style="stroke:#181818;stroke-width:1.0;" x1="340.5" x2="564.5" y1="736.3828" y2="736.3828"/><text fill="#000000" font-family="sans-serif" font-size="13" lengthAdjust="spacing" textLength="95" x="352.5" y="731.3169">product details</text><line style="stroke:#181818;stroke-width:1.0;" x1="335.5" x2="377.5" y1="777.5156" y2="777.5156"/><line style="stroke:#181818;stroke-width:1.0;" x1="377.5" x2="377.5" y1="777.5156" y2="790.5156"/><line style="stroke:#181818;stroke-width:1.0;" x1="330.5" x2="377.5" y1="790.5156" y2="790.5156"/><polygon fill="#181818" points="340.5,786.5156,330.5,790.5156,340.5,794.5156,336.5,790.5156" style="stroke:#181818;stroke-width:1.0;"/><text fill="#000000" font-family="sans-serif" font-size="13" lengthAdjust="spacing" textLength="58" x="342.5" y="772.4497">cart total</text><polygon fill="#181818" points="780.5,810.6484,790.5,814.6484,780.5,818.6484,784.5,814.6484" style="stroke:#181818;stroke-width:1.0;"/><line style="stroke:#181818;stroke-width:1.0;" x1="330.5" x2="786.5" y1="814.6484" y2="814.6484"/><text fill="#000000" font-family="sans-serif" font-size="13" lengthAdjust="spacing" textLength="103" x="337.5" y="809.5825">POST start saga</text><path d="M724,827.6484 L724,867.6484 L870,867.6484 L870,837.6484 L860,827.6484 L724,827.6484 " fill="#FEFFDD" style="stroke:#181818;stroke-width:0.5;"/><path d="M860,827.6484 L860,837.6484 L870,837.6484 L860,827.6484 " fill="#FEFFDD" style="stroke:#181818;stroke-width:0.5;"/><text fill="#000000" font-family="sans-serif" font-size="13" lengthAdjust="spacing" textLength="125" x="730" y="844.7153">Asynchronous saga</text><text fill="#000000" font-family="sans-serif" font-size="13" lengthAdjust="spacing" textLength="103" x="730" y="859.8481">execution starts</text><polygon fill="#181818" points="341.5,890.0469,331.5,894.0469,341.5,898.0469,337.5,894.0469" style="stroke:#181818;stroke-width:1.0;"/><line style="stroke:#181818;stroke-width:1.0;" x1="335.5" x2="796.5" y1="894.0469" y2="894.0469"/><text fill="#000000" font-family="sans-serif" font-size="13" lengthAdjust="spacing" textLength="15" x="347.5" y="888.981">ok</text><polygon fill="#181818" points="672,919.1797,682,923.1797,672,927.1797,676,923.1797" style="stroke:#181818;stroke-width:1.0;"/><line style="stroke:#181818;stroke-width:1.0;" x1="330.5" x2="678" y1="923.1797" y2="923.1797"/><text fill="#000000" font-family="sans-serif" font-size="13" lengthAdjust="spacing" textLength="77" x="337.5" y="918.1138">DELETE cart</text><polygon fill="#181818" points="341.5,948.3125,331.5,952.3125,341.5,956.3125,337.5,952.3125" style="stroke:#181818;stroke-width:1.0;"/><line style="stroke:#181818;stroke-width:1.0;" x1="335.5" x2="688" y1="952.3125" y2="952.3125"/><text fill="#000000" font-family="sans-serif" font-size="13" lengthAdjust="spacing" textLength="15" x="347.5" y="947.2466">ok</text><polygon fill="#181818" points="64.5,977.4453,54.5,981.4453,64.5,985.4453,60.5,981.4453" style="stroke:#181818;stroke-width:1.0;"/><line style="stroke:#181818;stroke-width:1.0;" x1="58.5" x2="324.5" y1="981.4453" y2="981.4453"/><text fill="#000000" font-family="sans-serif" font-size="13" lengthAdjust="spacing" textLength="15" x="70.5" y="976.3794">ok</text><line style="stroke:#181818;stroke-width:1.0;" x1="53.5" x2="95.5" y1="1015.5781" y2="1015.5781"/><line style="stroke:#181818;stroke-width:1.0;" x1="95.5" x2="95.5" y1="1015.5781" y2="1028.5781"/><line style="stroke:#181818;stroke-width:1.0;" x1="48.5" x2="95.5" y1="1028.5781" y2="1028.5781"/><polygon fill="#181818" points="58.5,1024.5781,48.5,1028.5781,58.5,1032.5781,54.5,1028.5781" style="stroke:#181818;stroke-width:1.0;"/><text fill="#000000" font-family="sans-serif" font-size="13" lengthAdjust="spacing" textLength="24" x="60.5" y="1010.5122">End</text><!--SRC=[XPJ1Rjim38RlUWeYryAN7ODXmBOOHOOLBH3tjeigCuaMM_GaELlVVgAIE58SkxwP_4Jo_qNRQzyWRF1FZqOXhBJSMTd2bYnKw3oyDD90-GzLxpKP-Alz7duyeKSB1LIVYYUjB3cqHwtG2T59wxNIdJGU5YTk0SaZ7VnkEPgJh-jlKXtGr66IM6h1PA_VJj4SNfiZ6a_sFOFr9Ph3tyFBbRlCe48qvvwjsWUzLeOILuwIg12doQ7uSjO03m-mX8tdOgFS4XxHO3Y9uD0vDc-z4g8Xwi3qxLj0Q0lQO-l04yYw5jpqMcTGVshpM5Q9HaQlGA275DCVu9-B12-AGEVaUOQ09Irox6RMGNEdrG6iD3MrKTkyffVdJSNA8yekyBr0xxJPfQRDYpsNQUK1mIAlekHLTN67XndcrDDXt29ESgh-EfvnN3BoQRL94qEULrhCkwB8RBLjmmRM0HfPairwSrx9HlKDBvudBnineOit96gPq15pTzTLcticZE-5EtIMwbvvgD5BtRWFx-AMPwicn0vJtjEPVhc9hOu_Ld1o9uMXu10TMLZABk6hUpTgRybGxoBwo-3m0um5NEvPTlvonnEkhygVPLNE6XyEpotF-5SJCsKmwZy0]--></g></svg>