<?xml version="1.0" encoding="us-ascii" standalone="no"?><svg xmlns="http://www.w3.org/2000/svg" xmlns:xlink="http://www.w3.org/1999/xlink" contentStyleType="text/css" height="553px" preserveAspectRatio="none" style="width:551px;height:553px;background:#FFFFFF;" version="1.1" viewBox="0 0 551 553" width="551px" zoomAndPan="magnify"><defs/><g><text fill="#000000" font-family="sans-serif" font-size="14" font-weight="bold" lengthAdjust="spacing" textLength="523" x="10.5" y="27.9951">Sequence Diagram for Test Plan Execution with JMeter (Simplified)</text><rect fill="#FFFFFF" height="380.5938" style="stroke:#181818;stroke-width:1.0;" width="10" x="43.5" y="112.7266"/><rect fill="#FFFFFF" height="29.1328" style="stroke:#181818;stroke-width:1.0;" width="10" x="365.5" y="213.125"/><rect fill="#FFFFFF" height="29.1328" style="stroke:#181818;stroke-width:1.0;" width="10" x="365.5" y="313.5234"/><rect fill="#FFFFFF" height="79.3984" style="stroke:#181818;stroke-width:1.0;" width="10" x="365.5" y="378.7891"/><rect fill="none" height="175.7969" style="stroke:#000000;stroke-width:1.5;" width="425.5" x="10" y="174.8594"/><line style="stroke:#181818;stroke-width:0.5;stroke-dasharray:5.0,5.0;" x1="48" x2="48" y1="73.5938" y2="518.3203"/><line style="stroke:#181818;stroke-width:0.5;stroke-dasharray:5.0,5.0;" x1="370.5" x2="370.5" y1="73.5938" y2="518.3203"/><rect fill="#E2E2F0" height="30.2969" rx="2.5" ry="2.5" style="stroke:#181818;stroke-width:0.5;" width="57" x="20" y="42.2969"/><text fill="#000000" font-family="sans-serif" font-size="14" lengthAdjust="spacing" textLength="43" x="27" y="62.292">JMeter</text><rect fill="#E2E2F0" height="30.2969" rx="2.5" ry="2.5" style="stroke:#181818;stroke-width:0.5;" width="57" x="20" y="517.3203"/><text fill="#000000" font-family="sans-serif" font-size="14" lengthAdjust="spacing" textLength="43" x="27" y="537.3154">JMeter</text><rect fill="#E2E2F0" height="30.2969" rx="2.5" ry="2.5" style="stroke:#181818;stroke-width:0.5;" width="110" x="315.5" y="42.2969"/><text fill="#000000" font-family="sans-serif" font-size="14" lengthAdjust="spacing" textLength="96" x="322.5" y="62.292">T2-Project API</text><rect fill="#E2E2F0" height="30.2969" rx="2.5" ry="2.5" style="stroke:#181818;stroke-width:0.5;" width="110" x="315.5" y="517.3203"/><text fill="#000000" font-family="sans-serif" font-size="14" lengthAdjust="spacing" textLength="96" x="322.5" y="537.3154">T2-Project API</text><rect fill="#FFFFFF" height="380.5938" style="stroke:#181818;stroke-width:1.0;" width="10" x="43.5" y="112.7266"/><rect fill="#FFFFFF" height="29.1328" style="stroke:#181818;stroke-width:1.0;" width="10" x="365.5" y="213.125"/><rect fill="#FFFFFF" height="29.1328" style="stroke:#181818;stroke-width:1.0;" width="10" x="365.5" y="313.5234"/><rect fill="#FFFFFF" height="79.3984" style="stroke:#181818;stroke-width:1.0;" width="10" x="365.5" y="378.7891"/><line style="stroke:#181818;stroke-width:1.0;" x1="48.5" x2="95.5" y1="99.7266" y2="99.7266"/><line style="stroke:#181818;stroke-width:1.0;" x1="95.5" x2="95.5" y1="99.7266" y2="112.7266"/><line style="stroke:#181818;stroke-width:1.0;" x1="54.5" x2="95.5" y1="112.7266" y2="112.7266"/><polygon fill="#181818" points="64.5,108.7266,54.5,112.7266,64.5,116.7266,60.5,112.7266" style="stroke:#181818;stroke-width:1.0;"/><text fill="#000000" font-family="sans-serif" font-size="13" lengthAdjust="spacing" textLength="32" x="60.5" y="94.6606">Start</text><line style="stroke:#181818;stroke-width:1.0;" x1="53.5" x2="95.5" y1="146.8594" y2="146.8594"/><line style="stroke:#181818;stroke-width:1.0;" x1="95.5" x2="95.5" y1="146.8594" y2="159.8594"/><line style="stroke:#181818;stroke-width:1.0;" x1="54.5" x2="95.5" y1="159.8594" y2="159.8594"/><polygon fill="#181818" points="64.5,155.8594,54.5,159.8594,64.5,163.8594,60.5,159.8594" style="stroke:#181818;stroke-width:1.0;"/><text fill="#000000" font-family="sans-serif" font-size="13" lengthAdjust="spacing" textLength="129" x="60.5" y="141.7935">Generate session ID</text><path d="M10,174.8594 L87,174.8594 L87,181.9922 L77,191.9922 L10,191.9922 L10,174.8594 " fill="#EEEEEE" style="stroke:#000000;stroke-width:1.5;"/><rect fill="none" height="175.7969" style="stroke:#000000;stroke-width:1.5;" width="425.5" x="10" y="174.8594"/><text fill="#000000" font-family="sans-serif" font-size="13" font-weight="bold" lengthAdjust="spacing" textLength="32" x="25" y="187.9263">loop</text><text fill="#000000" font-family="sans-serif" font-size="11" font-weight="bold" lengthAdjust="spacing" textLength="159" x="102" y="187.0698">[number of items to add]</text><polygon fill="#181818" points="353.5,209.125,363.5,213.125,353.5,217.125,357.5,213.125" style="stroke:#181818;stroke-width:1.0;"/><line style="stroke:#181818;stroke-width:1.0;" x1="53.5" x2="359.5" y1="213.125" y2="213.125"/><text fill="#000000" font-family="sans-serif" font-size="13" lengthAdjust="spacing" textLength="88" x="60.5" y="208.0591">GET inventory</text><polygon fill="#181818" points="64.5,238.2578,54.5,242.2578,64.5,246.2578,60.5,242.2578" style="stroke:#181818;stroke-width:1.0;"/><line style="stroke:#181818;stroke-width:1.0;" x1="58.5" x2="369.5" y1="242.2578" y2="242.2578"/><text fill="#000000" font-family="sans-serif" font-size="13" lengthAdjust="spacing" textLength="59" x="70.5" y="237.1919">inventory</text><line style="stroke:#181818;stroke-width:1.0;" x1="53.5" x2="95.5" y1="271.3906" y2="271.3906"/><line style="stroke:#181818;stroke-width:1.0;" x1="95.5" x2="95.5" y1="271.3906" y2="284.3906"/><line style="stroke:#181818;stroke-width:1.0;" x1="54.5" x2="95.5" y1="284.3906" y2="284.3906"/><polygon fill="#181818" points="64.5,280.3906,54.5,284.3906,64.5,288.3906,60.5,284.3906" style="stroke:#181818;stroke-width:1.0;"/><text fill="#000000" font-family="sans-serif" font-size="13" lengthAdjust="spacing" textLength="112" x="60.5" y="266.3247">pick random item</text><polygon fill="#181818" points="353.5,309.5234,363.5,313.5234,353.5,317.5234,357.5,313.5234" style="stroke:#181818;stroke-width:1.0;"/><line style="stroke:#181818;stroke-width:1.0;" x1="53.5" x2="359.5" y1="313.5234" y2="313.5234"/><text fill="#000000" font-family="sans-serif" font-size="13" lengthAdjust="spacing" textLength="293" x="60.5" y="308.4575">POST add picked item to cart using session ID</text><polygon fill="#181818" points="64.5,338.6563,54.5,342.6563,64.5,346.6563,60.5,342.6563" style="stroke:#181818;stroke-width:1.0;"/><line style="stroke:#181818;stroke-width:1.0;" x1="58.5" x2="369.5" y1="342.6563" y2="342.6563"/><text fill="#000000" font-family="sans-serif" font-size="13" lengthAdjust="spacing" textLength="15" x="70.5" y="337.5903">ok</text><polygon fill="#181818" points="353.5,374.7891,363.5,378.7891,353.5,382.7891,357.5,378.7891" style="stroke:#181818;stroke-width:1.0;"/><line style="stroke:#181818;stroke-width:1.0;" x1="53.5" x2="359.5" y1="378.7891" y2="378.7891"/><text fill="#000000" font-family="sans-serif" font-size="13" lengthAdjust="spacing" textLength="231" x="60.5" y="373.7231">POST confirm order using session ID</text><path d="M200,391.7891 L200,431.7891 L540,431.7891 L540,401.7891 L530,391.7891 L200,391.7891 " fill="#FEFFDD" style="stroke:#181818;stroke-width:0.5;"/><path d="M530,391.7891 L530,401.7891 L540,401.7891 L530,391.7891 " fill="#FEFFDD" style="stroke:#181818;stroke-width:0.5;"/><text fill="#000000" font-family="sans-serif" font-size="13" lengthAdjust="spacing" textLength="78" x="206" y="408.856">T2-Modulith:</text><text fill="#000000" font-family="sans-serif" font-size="13" lengthAdjust="spacing" textLength="149" x="334" y="408.856">Synchronous execution</text><text fill="#000000" font-family="sans-serif" font-size="13" lengthAdjust="spacing" textLength="110" x="206" y="423.9888">T2-Microservices:</text><text fill="#000000" font-family="sans-serif" font-size="13" lengthAdjust="spacing" textLength="191" x="334" y="423.9888">Asynchronous saga execution</text><polygon fill="#181818" points="64.5,454.1875,54.5,458.1875,64.5,462.1875,60.5,458.1875" style="stroke:#181818;stroke-width:1.0;"/><line style="stroke:#181818;stroke-width:1.0;" x1="58.5" x2="369.5" y1="458.1875" y2="458.1875"/><text fill="#000000" font-family="sans-serif" font-size="13" lengthAdjust="spacing" textLength="15" x="70.5" y="453.1216">ok</text><line style="stroke:#181818;stroke-width:1.0;" x1="53.5" x2="95.5" y1="492.3203" y2="492.3203"/><line style="stroke:#181818;stroke-width:1.0;" x1="95.5" x2="95.5" y1="492.3203" y2="505.3203"/><line style="stroke:#181818;stroke-width:1.0;" x1="48.5" x2="95.5" y1="505.3203" y2="505.3203"/><polygon fill="#181818" points="58.5,501.3203,48.5,505.3203,58.5,509.3203,54.5,505.3203" style="stroke:#181818;stroke-width:1.0;"/><text fill="#000000" font-family="sans-serif" font-size="13" lengthAdjust="spacing" textLength="24" x="60.5" y="487.2544">End</text><!--SRC=[TP91Ry8m38Nl-HKMfqsebnshQH8I2349hL9xv9AbBXXQkqjSDlxzqZAD8Y37lE_Ppt6Kj4R8yQj3TWXpibjl6wZ4Gu518Qijm-87NQSa3D-aEtXVewA7fvoQjgQAi7msfhLUoL5hMM5o9YPmEJR0lkalhy7Y9ScyxD4fpBBLv0pQbemvqv2y_VbWEeKKSetkMos59J9wgmW1G-YJhkR6r28jSDTyHaGg8CKcW0hOiZHzg4kTsFBSOBaeWFY8hE9FO-Wr6Q0aYT1TO9oc9NS0RxcKPkZwg5lsaHTzci60vS3s0LsS4hf0l1tFyo2D70noENwnw_fEk2BVWFWooZTLMUAhoJ5AlIs5k9Arb5qTDvrkTAFvYTtE2qiN0Fy_mePxZfoNWFv83aE4Ps741hkr5uEv7_nsbOEoYFFy0W00]--></g></svg>