<?xml version="1.0" encoding="us-ascii" standalone="no"?><svg xmlns="http://www.w3.org/2000/svg" xmlns:xlink="http://www.w3.org/1999/xlink" contentStyleType="text/css" height="1441px" preserveAspectRatio="none" style="width:921px;height:1441px;background:#FFFFFF;" version="1.1" viewBox="0 0 921 1441" width="921px" zoomAndPan="magnify"><defs/><g><text fill="#000000" font-family="sans-serif" font-size="14" font-weight="bold" lengthAdjust="spacing" textLength="489" x="212" y="27.9951">Sequence Diagram for Standard Usage Scenario - T2-Modulith</text><rect fill="#F5F5F5" height="1392.6406" style="stroke:#181818;stroke-width:0.5;" width="646" x="142.5" y="43.2969"/><text fill="#000000" font-family="sans-serif" font-size="13" font-weight="bold" lengthAdjust="spacing" textLength="123" x="404" y="55.3638">Internal Modules</text><rect fill="#FFFFFF" height="145.6641" style="stroke:#181818;stroke-width:1.0;" width="10" x="174" y="192.8594"/><rect fill="#FFFFFF" height="203.9297" style="stroke:#181818;stroke-width:1.0;" width="10" x="174" y="410.7891"/><rect fill="#FFFFFF" height="651.6563" style="stroke:#181818;stroke-width:1.0;" width="10" x="174" y="686.9844"/><rect fill="#FFFFFF" height="87.3984" style="stroke:#181818;stroke-width:1.0;" width="10" x="306" y="221.9922"/><rect fill="#FFFFFF" height="145.6641" style="stroke:#181818;stroke-width:1.0;" width="10" x="306" y="439.9219"/><rect fill="#FFFFFF" height="593.3906" style="stroke:#181818;stroke-width:1.0;" width="10" x="306" y="716.1172"/><rect fill="#FFFFFF" height="535.125" style="stroke:#181818;stroke-width:1.0;" width="10" x="421" y="745.25"/><rect fill="#FFFFFF" height="156.6641" style="stroke:#181818;stroke-width:1.0;" width="10" x="426" y="782.3828"/><rect fill="#FFFFFF" height="28" style="stroke:#181818;stroke-width:1.0;" width="10" x="426" y="983.1797"/><rect fill="#FFFFFF" height="29.1328" style="stroke:#181818;stroke-width:1.0;" width="10" x="582" y="251.125"/><rect fill="#FFFFFF" height="29.1328" style="stroke:#181818;stroke-width:1.0;" width="10" x="582" y="469.0547"/><rect fill="#FFFFFF" height="29.1328" style="stroke:#181818;stroke-width:1.0;" width="10" x="582" y="874.7813"/><rect fill="#FFFFFF" height="29.1328" style="stroke:#181818;stroke-width:1.0;" width="10" x="582" y="1163.8438"/><rect fill="#FFFFFF" height="29.1328" style="stroke:#181818;stroke-width:1.0;" width="10" x="663" y="527.3203"/><rect fill="#FFFFFF" height="29.1328" style="stroke:#181818;stroke-width:1.0;" width="10" x="663" y="816.5156"/><rect fill="#FFFFFF" height="29.1328" style="stroke:#181818;stroke-width:1.0;" width="10" x="663" y="1222.1094"/><rect fill="#FFFFFF" height="87.3984" style="stroke:#181818;stroke-width:1.0;" width="10" x="742.5" y="1047.3125"/><rect fill="#FFFFFF" height="29.1328" style="stroke:#181818;stroke-width:1.0;" width="10" x="848.5" y="1076.4453"/><line style="stroke:#181818;stroke-width:0.5;stroke-dasharray:5.0,5.0;" x1="24" x2="24" y1="118.5938" y2="1356.6406"/><line style="stroke:#181818;stroke-width:0.5;stroke-dasharray:5.0,5.0;" x1="178.5" x2="178.5" y1="118.5938" y2="1356.6406"/><line style="stroke:#181818;stroke-width:0.5;stroke-dasharray:5.0,5.0;" x1="311" x2="311" y1="118.5938" y2="1356.6406"/><line style="stroke:#181818;stroke-width:0.5;stroke-dasharray:5.0,5.0;" x1="425.5" x2="425.5" y1="118.5938" y2="1356.6406"/><line style="stroke:#181818;stroke-width:0.5;stroke-dasharray:5.0,5.0;" x1="586.5" x2="586.5" y1="118.5938" y2="1356.6406"/><line style="stroke:#181818;stroke-width:0.5;stroke-dasharray:5.0,5.0;" x1="667.5" x2="667.5" y1="118.5938" y2="1356.6406"/><line style="stroke:#181818;stroke-width:0.5;stroke-dasharray:5.0,5.0;" x1="747.5" x2="747.5" y1="118.5938" y2="1356.6406"/><line style="stroke:#181818;stroke-width:0.5;stroke-dasharray:5.0,5.0;" x1="853" x2="853" y1="118.5938" y2="1356.6406"/><text fill="#000000" font-family="sans-serif" font-size="14" lengthAdjust="spacing" textLength="32" x="5" y="115.292">User</text><ellipse cx="24" cy="50.7969" fill="#E2E2F0" rx="8" ry="8" style="stroke:#181818;stroke-width:0.5;"/><path d="M24,58.7969 L24,85.7969 M11,66.7969 L37,66.7969 M24,85.7969 L11,100.7969 M24,85.7969 L37,100.7969 " fill="none" style="stroke:#181818;stroke-width:0.5;"/><text fill="#000000" font-family="sans-serif" font-size="14" lengthAdjust="spacing" textLength="32" x="5" y="1368.6357">User</text><ellipse cx="24" cy="1380.4375" fill="#E2E2F0" rx="8" ry="8" style="stroke:#181818;stroke-width:0.5;"/><path d="M24,1388.4375 L24,1415.4375 M11,1396.4375 L37,1396.4375 M24,1415.4375 L11,1430.4375 M24,1415.4375 L37,1430.4375 " fill="none" style="stroke:#181818;stroke-width:0.5;"/><rect fill="#E2E2F0" height="46.5938" rx="2.5" ry="2.5" style="stroke:#181818;stroke-width:0.5;" width="65" x="146.5" y="71"/><text fill="#000000" font-family="sans-serif" font-size="14" lengthAdjust="spacing" textLength="13" x="172.5" y="90.9951">UI</text><text fill="#000000" font-family="sans-serif" font-size="14" lengthAdjust="spacing" textLength="51" x="153.5" y="107.292">Module</text><rect fill="#E2E2F0" height="46.5938" rx="2.5" ry="2.5" style="stroke:#181818;stroke-width:0.5;" width="65" x="146.5" y="1355.6406"/><text fill="#000000" font-family="sans-serif" font-size="14" lengthAdjust="spacing" textLength="13" x="172.5" y="1375.6357">UI</text><text fill="#000000" font-family="sans-serif" font-size="14" lengthAdjust="spacing" textLength="51" x="153.5" y="1391.9326">Module</text><rect fill="#E2E2F0" height="46.5938" rx="2.5" ry="2.5" style="stroke:#181818;stroke-width:0.5;" width="88" x="267" y="71"/><text fill="#000000" font-family="sans-serif" font-size="14" lengthAdjust="spacing" textLength="74" x="274" y="90.9951">UIBackend</text><text fill="#000000" font-family="sans-serif" font-size="14" lengthAdjust="spacing" textLength="51" x="285.5" y="107.292">Module</text><rect fill="#E2E2F0" height="46.5938" rx="2.5" ry="2.5" style="stroke:#181818;stroke-width:0.5;" width="88" x="267" y="1355.6406"/><text fill="#000000" font-family="sans-serif" font-size="14" lengthAdjust="spacing" textLength="74" x="274" y="1375.6357">UIBackend</text><text fill="#000000" font-family="sans-serif" font-size="14" lengthAdjust="spacing" textLength="51" x="285.5" y="1391.9326">Module</text><rect fill="#E2E2F0" height="46.5938" rx="2.5" ry="2.5" style="stroke:#181818;stroke-width:0.5;" width="65" x="393.5" y="71"/><text fill="#000000" font-family="sans-serif" font-size="14" lengthAdjust="spacing" textLength="39" x="406.5" y="90.9951">Order</text><text fill="#000000" font-family="sans-serif" font-size="14" lengthAdjust="spacing" textLength="51" x="400.5" y="107.292">Module</text><rect fill="#E2E2F0" height="46.5938" rx="2.5" ry="2.5" style="stroke:#181818;stroke-width:0.5;" width="65" x="393.5" y="1355.6406"/><text fill="#000000" font-family="sans-serif" font-size="14" lengthAdjust="spacing" textLength="39" x="406.5" y="1375.6357">Order</text><text fill="#000000" font-family="sans-serif" font-size="14" lengthAdjust="spacing" textLength="51" x="400.5" y="1391.9326">Module</text><rect fill="#E2E2F0" height="46.5938" rx="2.5" ry="2.5" style="stroke:#181818;stroke-width:0.5;" width="77" x="548.5" y="71"/><text fill="#000000" font-family="sans-serif" font-size="14" lengthAdjust="spacing" textLength="63" x="555.5" y="90.9951">Inventory</text><text fill="#000000" font-family="sans-serif" font-size="14" lengthAdjust="spacing" textLength="51" x="561.5" y="107.292">Module</text><rect fill="#E2E2F0" height="46.5938" rx="2.5" ry="2.5" style="stroke:#181818;stroke-width:0.5;" width="77" x="548.5" y="1355.6406"/><text fill="#000000" font-family="sans-serif" font-size="14" lengthAdjust="spacing" textLength="63" x="555.5" y="1375.6357">Inventory</text><text fill="#000000" font-family="sans-serif" font-size="14" lengthAdjust="spacing" textLength="51" x="561.5" y="1391.9326">Module</text><rect fill="#E2E2F0" height="46.5938" rx="2.5" ry="2.5" style="stroke:#181818;stroke-width:0.5;" width="65" x="635.5" y="71"/><text fill="#000000" font-family="sans-serif" font-size="14" lengthAdjust="spacing" textLength="28" x="654" y="90.9951">Cart</text><text fill="#000000" font-family="sans-serif" font-size="14" lengthAdjust="spacing" textLength="51" x="642.5" y="107.292">Module</text><rect fill="#E2E2F0" height="46.5938" rx="2.5" ry="2.5" style="stroke:#181818;stroke-width:0.5;" width="65" x="635.5" y="1355.6406"/><text fill="#000000" font-family="sans-serif" font-size="14" lengthAdjust="spacing" textLength="28" x="654" y="1375.6357">Cart</text><text fill="#000000" font-family="sans-serif" font-size="14" lengthAdjust="spacing" textLength="51" x="642.5" y="1391.9326">Module</text><rect fill="#E2E2F0" height="46.5938" rx="2.5" ry="2.5" style="stroke:#181818;stroke-width:0.5;" width="74" x="710.5" y="71"/><text fill="#000000" font-family="sans-serif" font-size="14" lengthAdjust="spacing" textLength="60" x="717.5" y="90.9951">Payment</text><text fill="#000000" font-family="sans-serif" font-size="14" lengthAdjust="spacing" textLength="51" x="722" y="107.292">Module</text><rect fill="#E2E2F0" height="46.5938" rx="2.5" ry="2.5" style="stroke:#181818;stroke-width:0.5;" width="74" x="710.5" y="1355.6406"/><text fill="#000000" font-family="sans-serif" font-size="14" lengthAdjust="spacing" textLength="60" x="717.5" y="1375.6357">Payment</text><text fill="#000000" font-family="sans-serif" font-size="14" lengthAdjust="spacing" textLength="51" x="722" y="1391.9326">Module</text><rect fill="#E2E2F0" height="30.2969" rx="2.5" ry="2.5" style="stroke:#181818;stroke-width:0.5;" width="111" x="798" y="87.2969"/><text fill="#000000" font-family="sans-serif" font-size="14" lengthAdjust="spacing" textLength="97" x="805" y="107.292">CreditInstitute</text><rect fill="#E2E2F0" height="30.2969" rx="2.5" ry="2.5" style="stroke:#181818;stroke-width:0.5;" width="111" x="798" y="1355.6406"/><text fill="#000000" font-family="sans-serif" font-size="14" lengthAdjust="spacing" textLength="97" x="805" y="1375.6357">CreditInstitute</text><rect fill="#FFFFFF" height="145.6641" style="stroke:#181818;stroke-width:1.0;" width="10" x="174" y="192.8594"/><rect fill="#FFFFFF" height="203.9297" style="stroke:#181818;stroke-width:1.0;" width="10" x="174" y="410.7891"/><rect fill="#FFFFFF" height="651.6563" style="stroke:#181818;stroke-width:1.0;" width="10" x="174" y="686.9844"/><rect fill="#FFFFFF" height="87.3984" style="stroke:#181818;stroke-width:1.0;" width="10" x="306" y="221.9922"/><rect fill="#FFFFFF" height="145.6641" style="stroke:#181818;stroke-width:1.0;" width="10" x="306" y="439.9219"/><rect fill="#FFFFFF" height="593.3906" style="stroke:#181818;stroke-width:1.0;" width="10" x="306" y="716.1172"/><rect fill="#FFFFFF" height="535.125" style="stroke:#181818;stroke-width:1.0;" width="10" x="421" y="745.25"/><rect fill="#FFFFFF" height="156.6641" style="stroke:#181818;stroke-width:1.0;" width="10" x="426" y="782.3828"/><rect fill="#FFFFFF" height="28" style="stroke:#181818;stroke-width:1.0;" width="10" x="426" y="983.1797"/><rect fill="#FFFFFF" height="29.1328" style="stroke:#181818;stroke-width:1.0;" width="10" x="582" y="251.125"/><rect fill="#FFFFFF" height="29.1328" style="stroke:#181818;stroke-width:1.0;" width="10" x="582" y="469.0547"/><rect fill="#FFFFFF" height="29.1328" style="stroke:#181818;stroke-width:1.0;" width="10" x="582" y="874.7813"/><rect fill="#FFFFFF" height="29.1328" style="stroke:#181818;stroke-width:1.0;" width="10" x="582" y="1163.8438"/><rect fill="#FFFFFF" height="29.1328" style="stroke:#181818;stroke-width:1.0;" width="10" x="663" y="527.3203"/><rect fill="#FFFFFF" height="29.1328" style="stroke:#181818;stroke-width:1.0;" width="10" x="663" y="816.5156"/><rect fill="#FFFFFF" height="29.1328" style="stroke:#181818;stroke-width:1.0;" width="10" x="663" y="1222.1094"/><rect fill="#FFFFFF" height="87.3984" style="stroke:#181818;stroke-width:1.0;" width="10" x="742.5" y="1047.3125"/><rect fill="#FFFFFF" height="29.1328" style="stroke:#181818;stroke-width:1.0;" width="10" x="848.5" y="1076.4453"/><rect fill="#EEEEEE" height="3" style="stroke:#EEEEEE;stroke-width:1.0;" width="914" x="0" y="149.1602"/><line style="stroke:#000000;stroke-width:1.0;" x1="0" x2="914" y1="149.1602" y2="149.1602"/><line style="stroke:#000000;stroke-width:1.0;" x1="0" x2="914" y1="152.1602" y2="152.1602"/><rect fill="#EEEEEE" height="23.1328" style="stroke:#000000;stroke-width:2.0;" width="116" x="399" y="138.5938"/><text fill="#000000" font-family="sans-serif" font-size="13" font-weight="bold" lengthAdjust="spacing" textLength="97" x="405" y="154.6606">Get Products</text><polygon fill="#181818" points="162,188.8594,172,192.8594,162,196.8594,166,192.8594" style="stroke:#181818;stroke-width:1.0;"/><line style="stroke:#181818;stroke-width:1.0;" x1="24" x2="168" y1="192.8594" y2="192.8594"/><text fill="#000000" font-family="sans-serif" font-size="13" lengthAdjust="spacing" textLength="96" x="31" y="187.7935">Page /products</text><polygon fill="#181818" points="294,217.9922,304,221.9922,294,225.9922,298,221.9922" style="stroke:#181818;stroke-width:1.0;"/><line style="stroke:#181818;stroke-width:1.0;" x1="184" x2="300" y1="221.9922" y2="221.9922"/><text fill="#000000" font-family="sans-serif" font-size="13" lengthAdjust="spacing" textLength="81" x="191" y="216.9263">get products</text><polygon fill="#181818" points="570,247.125,580,251.125,570,255.125,574,251.125" style="stroke:#181818;stroke-width:1.0;"/><line style="stroke:#181818;stroke-width:1.0;" x1="316" x2="576" y1="251.125" y2="251.125"/><text fill="#000000" font-family="sans-serif" font-size="13" lengthAdjust="spacing" textLength="81" x="323" y="246.0591">get products</text><polygon fill="#181818" points="327,276.2578,317,280.2578,327,284.2578,323,280.2578" style="stroke:#181818;stroke-width:1.0;"/><line style="stroke:#181818;stroke-width:1.0;" x1="321" x2="586" y1="280.2578" y2="280.2578"/><text fill="#000000" font-family="sans-serif" font-size="13" lengthAdjust="spacing" textLength="56" x="333" y="275.1919">products</text><polygon fill="#181818" points="195,305.3906,185,309.3906,195,313.3906,191,309.3906" style="stroke:#181818;stroke-width:1.0;"/><line style="stroke:#181818;stroke-width:1.0;" x1="189" x2="310" y1="309.3906" y2="309.3906"/><text fill="#000000" font-family="sans-serif" font-size="13" lengthAdjust="spacing" textLength="56" x="201" y="304.3247">products</text><polygon fill="#181818" points="35,334.5234,25,338.5234,35,342.5234,31,338.5234" style="stroke:#181818;stroke-width:1.0;"/><line style="stroke:#181818;stroke-width:1.0;" x1="29" x2="178" y1="338.5234" y2="338.5234"/><text fill="#000000" font-family="sans-serif" font-size="13" lengthAdjust="spacing" textLength="56" x="41" y="333.4575">products</text><rect fill="#EEEEEE" height="3" style="stroke:#EEEEEE;stroke-width:1.0;" width="914" x="0" y="367.0898"/><line style="stroke:#000000;stroke-width:1.0;" x1="0" x2="914" y1="367.0898" y2="367.0898"/><line style="stroke:#000000;stroke-width:1.0;" x1="0" x2="914" y1="370.0898" y2="370.0898"/><rect fill="#EEEEEE" height="23.1328" style="stroke:#000000;stroke-width:2.0;" width="143" x="385.5" y="356.5234"/><text fill="#000000" font-family="sans-serif" font-size="13" font-weight="bold" lengthAdjust="spacing" textLength="124" x="391.5" y="372.5903">Add Item to Cart</text><polygon fill="#181818" points="162,406.7891,172,410.7891,162,414.7891,166,410.7891" style="stroke:#181818;stroke-width:1.0;"/><line style="stroke:#181818;stroke-width:1.0;" x1="24" x2="168" y1="410.7891" y2="410.7891"/><text fill="#000000" font-family="sans-serif" font-size="13" lengthAdjust="spacing" textLength="131" x="31" y="405.7231">Adds an item to cart</text><polygon fill="#181818" points="294,435.9219,304,439.9219,294,443.9219,298,439.9219" style="stroke:#181818;stroke-width:1.0;"/><line style="stroke:#181818;stroke-width:1.0;" x1="184" x2="300" y1="439.9219" y2="439.9219"/><text fill="#000000" font-family="sans-serif" font-size="13" lengthAdjust="spacing" textLength="103" x="191" y="434.856">add item to cart</text><polygon fill="#181818" points="570,465.0547,580,469.0547,570,473.0547,574,469.0547" style="stroke:#181818;stroke-width:1.0;"/><line style="stroke:#181818;stroke-width:1.0;" x1="316" x2="576" y1="469.0547" y2="469.0547"/><text fill="#000000" font-family="sans-serif" font-size="13" lengthAdjust="spacing" textLength="173" x="323" y="463.9888">make reservations for item</text><polygon fill="#181818" points="327,494.1875,317,498.1875,327,502.1875,323,498.1875" style="stroke:#181818;stroke-width:1.0;"/><line style="stroke:#181818;stroke-width:1.0;" x1="321" x2="586" y1="498.1875" y2="498.1875"/><text fill="#000000" font-family="sans-serif" font-size="13" lengthAdjust="spacing" textLength="15" x="333" y="493.1216">ok</text><polygon fill="#181818" points="651,523.3203,661,527.3203,651,531.3203,655,527.3203" style="stroke:#181818;stroke-width:1.0;"/><line style="stroke:#181818;stroke-width:1.0;" x1="316" x2="657" y1="527.3203" y2="527.3203"/><text fill="#000000" font-family="sans-serif" font-size="13" lengthAdjust="spacing" textLength="103" x="323" y="522.2544">add item to cart</text><polygon fill="#181818" points="327,552.4531,317,556.4531,327,560.4531,323,556.4531" style="stroke:#181818;stroke-width:1.0;"/><line style="stroke:#181818;stroke-width:1.0;" x1="321" x2="667" y1="556.4531" y2="556.4531"/><text fill="#000000" font-family="sans-serif" font-size="13" lengthAdjust="spacing" textLength="15" x="333" y="551.3872">ok</text><polygon fill="#181818" points="195,581.5859,185,585.5859,195,589.5859,191,585.5859" style="stroke:#181818;stroke-width:1.0;"/><line style="stroke:#181818;stroke-width:1.0;" x1="189" x2="310" y1="585.5859" y2="585.5859"/><text fill="#000000" font-family="sans-serif" font-size="13" lengthAdjust="spacing" textLength="15" x="201" y="580.52">ok</text><polygon fill="#181818" points="35,610.7188,25,614.7188,35,618.7188,31,614.7188" style="stroke:#181818;stroke-width:1.0;"/><line style="stroke:#181818;stroke-width:1.0;" x1="29" x2="178" y1="614.7188" y2="614.7188"/><text fill="#000000" font-family="sans-serif" font-size="13" lengthAdjust="spacing" textLength="15" x="41" y="609.6528">ok</text><rect fill="#EEEEEE" height="3" style="stroke:#EEEEEE;stroke-width:1.0;" width="914" x="0" y="643.2852"/><line style="stroke:#000000;stroke-width:1.0;" x1="0" x2="914" y1="643.2852" y2="643.2852"/><line style="stroke:#000000;stroke-width:1.0;" x1="0" x2="914" y1="646.2852" y2="646.2852"/><rect fill="#EEEEEE" height="23.1328" style="stroke:#000000;stroke-width:2.0;" width="135" x="389.5" y="632.7188"/><text fill="#000000" font-family="sans-serif" font-size="13" font-weight="bold" lengthAdjust="spacing" textLength="116" x="395.5" y="648.7856">Order Checkout</text><polygon fill="#181818" points="162,682.9844,172,686.9844,162,690.9844,166,686.9844" style="stroke:#181818;stroke-width:1.0;"/><line style="stroke:#181818;stroke-width:1.0;" x1="24" x2="168" y1="686.9844" y2="686.9844"/><text fill="#000000" font-family="sans-serif" font-size="13" lengthAdjust="spacing" textLength="60" x="31" y="681.9185">Checkout</text><polygon fill="#181818" points="294,712.1172,304,716.1172,294,720.1172,298,716.1172" style="stroke:#181818;stroke-width:1.0;"/><line style="stroke:#181818;stroke-width:1.0;" x1="184" x2="300" y1="716.1172" y2="716.1172"/><text fill="#000000" font-family="sans-serif" font-size="13" lengthAdjust="spacing" textLength="86" x="191" y="711.0513">confirm order</text><polygon fill="#181818" points="409,741.25,419,745.25,409,749.25,413,745.25" style="stroke:#181818;stroke-width:1.0;"/><line style="stroke:#181818;stroke-width:1.0;" x1="316" x2="415" y1="745.25" y2="745.25"/><text fill="#000000" font-family="sans-serif" font-size="13" lengthAdjust="spacing" textLength="86" x="323" y="740.1841">confirm order</text><line style="stroke:#181818;stroke-width:1.0;" x1="431" x2="478" y1="769.3828" y2="769.3828"/><line style="stroke:#181818;stroke-width:1.0;" x1="478" x2="478" y1="769.3828" y2="782.3828"/><line style="stroke:#181818;stroke-width:1.0;" x1="437" x2="478" y1="782.3828" y2="782.3828"/><polygon fill="#181818" points="447,778.3828,437,782.3828,447,786.3828,443,782.3828" style="stroke:#181818;stroke-width:1.0;"/><text fill="#000000" font-family="sans-serif" font-size="13" lengthAdjust="spacing" textLength="90" x="443" y="764.3169">calculate total</text><polygon fill="#181818" points="651,812.5156,661,816.5156,651,820.5156,655,816.5156" style="stroke:#181818;stroke-width:1.0;"/><line style="stroke:#181818;stroke-width:1.0;" x1="436" x2="657" y1="816.5156" y2="816.5156"/><text fill="#000000" font-family="sans-serif" font-size="13" lengthAdjust="spacing" textLength="50" x="443" y="811.4497">get cart</text><polygon fill="#181818" points="447,841.6484,437,845.6484,447,849.6484,443,845.6484" style="stroke:#181818;stroke-width:1.0;"/><line style="stroke:#181818;stroke-width:1.0;" x1="441" x2="667" y1="845.6484" y2="845.6484"/><text fill="#000000" font-family="sans-serif" font-size="13" lengthAdjust="spacing" textLength="25" x="453" y="840.5825">cart</text><polygon fill="#181818" points="570,870.7813,580,874.7813,570,878.7813,574,874.7813" style="stroke:#181818;stroke-width:1.0;"/><line style="stroke:#181818;stroke-width:1.0;" x1="436" x2="576" y1="874.7813" y2="874.7813"/><text fill="#000000" font-family="sans-serif" font-size="13" lengthAdjust="spacing" textLength="127" x="443" y="869.7153">get products details</text><polygon fill="#181818" points="447,899.9141,437,903.9141,447,907.9141,443,903.9141" style="stroke:#181818;stroke-width:1.0;"/><line style="stroke:#181818;stroke-width:1.0;" x1="441" x2="586" y1="903.9141" y2="903.9141"/><text fill="#000000" font-family="sans-serif" font-size="13" lengthAdjust="spacing" textLength="95" x="453" y="898.8481">product details</text><line style="stroke:#181818;stroke-width:1.0;" x1="436" x2="478" y1="938.0469" y2="938.0469"/><line style="stroke:#181818;stroke-width:1.0;" x1="478" x2="478" y1="938.0469" y2="951.0469"/><line style="stroke:#181818;stroke-width:1.0;" x1="431" x2="478" y1="951.0469" y2="951.0469"/><polygon fill="#181818" points="441,947.0469,431,951.0469,441,955.0469,437,951.0469" style="stroke:#181818;stroke-width:1.0;"/><text fill="#000000" font-family="sans-serif" font-size="13" lengthAdjust="spacing" textLength="58" x="443" y="932.981">cart total</text><line style="stroke:#181818;stroke-width:1.0;" x1="436" x2="478" y1="975.1797" y2="975.1797"/><line style="stroke:#181818;stroke-width:1.0;" x1="478" x2="478" y1="975.1797" y2="988.1797"/><line style="stroke:#181818;stroke-width:1.0;" x1="437" x2="478" y1="988.1797" y2="988.1797"/><polygon fill="#181818" points="447,984.1797,437,988.1797,447,992.1797,443,988.1797" style="stroke:#181818;stroke-width:1.0;"/><text fill="#000000" font-family="sans-serif" font-size="13" lengthAdjust="spacing" textLength="79" x="443" y="970.1138">create order</text><polygon fill="#181818" points="730.5,1043.3125,740.5,1047.3125,730.5,1051.3125,734.5,1047.3125" style="stroke:#181818;stroke-width:1.0;"/><line style="stroke:#181818;stroke-width:1.0;" x1="431" x2="736.5" y1="1047.3125" y2="1047.3125"/><text fill="#000000" font-family="sans-serif" font-size="13" lengthAdjust="spacing" textLength="77" x="438" y="1042.2466">do payment</text><polygon fill="#181818" points="836.5,1072.4453,846.5,1076.4453,836.5,1080.4453,840.5,1076.4453" style="stroke:#181818;stroke-width:1.0;"/><line style="stroke:#181818;stroke-width:1.0;" x1="752.5" x2="842.5" y1="1076.4453" y2="1076.4453"/><text fill="#000000" font-family="sans-serif" font-size="13" lengthAdjust="spacing" textLength="77" x="759.5" y="1071.3794">do payment</text><polygon fill="#181818" points="763.5,1101.5781,753.5,1105.5781,763.5,1109.5781,759.5,1105.5781" style="stroke:#181818;stroke-width:1.0;"/><line style="stroke:#181818;stroke-width:1.0;" x1="757.5" x2="852.5" y1="1105.5781" y2="1105.5781"/><text fill="#000000" font-family="sans-serif" font-size="13" lengthAdjust="spacing" textLength="15" x="769.5" y="1100.5122">ok</text><polygon fill="#181818" points="442,1130.7109,432,1134.7109,442,1138.7109,438,1134.7109" style="stroke:#181818;stroke-width:1.0;"/><line style="stroke:#181818;stroke-width:1.0;" x1="436" x2="746.5" y1="1134.7109" y2="1134.7109"/><text fill="#000000" font-family="sans-serif" font-size="13" lengthAdjust="spacing" textLength="15" x="448" y="1129.645">ok</text><polygon fill="#181818" points="570,1159.8438,580,1163.8438,570,1167.8438,574,1163.8438" style="stroke:#181818;stroke-width:1.0;"/><line style="stroke:#181818;stroke-width:1.0;" x1="431" x2="576" y1="1163.8438" y2="1163.8438"/><text fill="#000000" font-family="sans-serif" font-size="13" lengthAdjust="spacing" textLength="132" x="438" y="1158.7778">commit reservations</text><polygon fill="#181818" points="442,1188.9766,432,1192.9766,442,1196.9766,438,1192.9766" style="stroke:#181818;stroke-width:1.0;"/><line style="stroke:#181818;stroke-width:1.0;" x1="436" x2="586" y1="1192.9766" y2="1192.9766"/><text fill="#000000" font-family="sans-serif" font-size="13" lengthAdjust="spacing" textLength="15" x="448" y="1187.9106">ok</text><polygon fill="#181818" points="651,1218.1094,661,1222.1094,651,1226.1094,655,1222.1094" style="stroke:#181818;stroke-width:1.0;"/><line style="stroke:#181818;stroke-width:1.0;" x1="431" x2="657" y1="1222.1094" y2="1222.1094"/><text fill="#000000" font-family="sans-serif" font-size="13" lengthAdjust="spacing" textLength="69" x="438" y="1217.0435">delete cart</text><polygon fill="#181818" points="442,1247.2422,432,1251.2422,442,1255.2422,438,1251.2422" style="stroke:#181818;stroke-width:1.0;"/><line style="stroke:#181818;stroke-width:1.0;" x1="436" x2="667" y1="1251.2422" y2="1251.2422"/><text fill="#000000" font-family="sans-serif" font-size="13" lengthAdjust="spacing" textLength="15" x="448" y="1246.1763">ok</text><polygon fill="#181818" points="327,1276.375,317,1280.375,327,1284.375,323,1280.375" style="stroke:#181818;stroke-width:1.0;"/><line style="stroke:#181818;stroke-width:1.0;" x1="321" x2="425" y1="1280.375" y2="1280.375"/><text fill="#000000" font-family="sans-serif" font-size="13" lengthAdjust="spacing" textLength="15" x="333" y="1275.3091">ok</text><polygon fill="#181818" points="195,1305.5078,185,1309.5078,195,1313.5078,191,1309.5078" style="stroke:#181818;stroke-width:1.0;"/><line style="stroke:#181818;stroke-width:1.0;" x1="189" x2="310" y1="1309.5078" y2="1309.5078"/><text fill="#000000" font-family="sans-serif" font-size="13" lengthAdjust="spacing" textLength="15" x="201" y="1304.4419">ok</text><polygon fill="#181818" points="35,1334.6406,25,1338.6406,35,1342.6406,31,1338.6406" style="stroke:#181818;stroke-width:1.0;"/><line style="stroke:#181818;stroke-width:1.0;" x1="29" x2="178" y1="1338.6406" y2="1338.6406"/><text fill="#000000" font-family="sans-serif" font-size="13" lengthAdjust="spacing" textLength="15" x="41" y="1333.5747">ok</text><!--SRC=[bLDDZzCm4BtdLupASHKXSKGK2HO9vO2eL5PSkCpQiwsLn2xEPCN-UyREfxrf4RbbtfitVizZDjmG7EbtJrOHV35uyjZ2a_DmPBGQlOQ73a_2KMJH6mSb_7XNVdEwRmoVYm8L2tduTWyT-HsiFkoWbrhnwFx0hh9Ctc83iPkw7RpvUJPCnzRLL5pGir7cWfP5gFfb1rOYDmYQdFiPLKrMvosH-pXWQSjthyblJP0M5x2KNjbdicBpPME2cR2qvLv-DYr8Yn8iPH_mfHMLrmt2lWnO8IP0Oip6UDA6AzknuPwbCSZ7cfbgHR7VmrTYE7WHLzp1VbyKuLQW_2W1mTqTl8T3kEEtbv5II3c2Ote3voGYAyQ42N4EuIRnGxaYbgKGr_C4NMccQ3Xin3CWMFkaDLHCBR23aFgcFI5rW1RCI8nNi6aIHIvZNJVQOatWIOOz8njdk_XoGljDswvELSESVquNcSXR53OY2_KiB2c5cEBAm_sPLEtwxP0cS3iOvUoJyUtuFfBpnz8MQm0o1ZQgRv19F38s2sT98UnFT3zWYVDL_VRYWIP6qtIBoFRoPRpviFEq_9oJbu7WALZ9x8vlTZYKTlCRdkh1RVfAhrA3-OmwNUjiR9PDWDVnADUsXfE5lPhEMcQv6KqDoGckNKwos8Aialo_ZVqB]--></g></svg>